<?xml version="1.0" standalone="no"?>
<!DOCTYPE svg PUBLIC "-//W3C//DTD SVG 1.1//EN" "http://www.w3.org/Graphics/SVG/1.1/DTD/svg11.dtd" >
<svg xmlns="http://www.w3.org/2000/svg">
<metadata>
Created by FontForge 20120731 at Mon May 23 13:56:00 2016
 By admin
</metadata>
<defs>
<font id="iconfont" horiz-adv-x="1024" >
  <font-face 
    font-family="iconfont"
    font-weight="500"
    font-stretch="normal"
    units-per-em="1024"
    panose-1="2 0 6 3 0 0 0 0 0 0"
    ascent="896"
    descent="-128"
    x-height="792"
    bbox="-0.75 -224 2651 896.417"
    underline-thickness="50"
    underline-position="-100"
    unicode-range="U+0078-E68E"
  />
<missing-glyph horiz-adv-x="374" 
d="M34 0v682h272v-682h-272zM68 34h204v614h-204v-614z" />
    <glyph glyph-name=".notdef" horiz-adv-x="374" 
d="M34 0v682h272v-682h-272zM68 34h204v614h-204v-614z" />
    <glyph glyph-name=".null" horiz-adv-x="0" 
 />
    <glyph glyph-name="nonmarkingreturn" horiz-adv-x="341" 
 />
    <glyph glyph-name="x" unicode="x" horiz-adv-x="1001" 
d="M281 543q-27 -1 -53 -1h-83q-18 0 -36.5 -6t-32.5 -18.5t-23 -32t-9 -45.5v-76h912v41q0 16 -0.5 30t-0.5 18q0 13 -5 29t-17 29.5t-31.5 22.5t-49.5 9h-133v-97h-438v97zM955 310v-52q0 -23 0.5 -52t0.5 -58t-10.5 -47.5t-26 -30t-33 -16t-31.5 -4.5q-14 -1 -29.5 -0.5
t-29.5 0.5h-32l-45 128h-439l-44 -128h-29h-34q-20 0 -45 1q-25 0 -41 9.5t-25.5 23t-13.5 29.5t-4 30v167h911zM163 247q-12 0 -21 -8.5t-9 -21.5t9 -21.5t21 -8.5q13 0 22 8.5t9 21.5t-9 21.5t-22 8.5zM316 123q-8 -26 -14 -48q-5 -19 -10.5 -37t-7.5 -25t-3 -15t1 -14.5
t9.5 -10.5t21.5 -4h37h67h81h80h64h36q23 0 34 12t2 38q-5 13 -9.5 30.5t-9.5 34.5q-5 19 -11 39h-368zM336 498v228q0 11 2.5 23t10 21.5t20.5 15.5t34 6h188q31 0 51.5 -14.5t20.5 -52.5v-227h-327z" />
    <glyph glyph-name="uniE553" unicode="&#xe553;" 
d="M1024 -161h-102q0 85 -60 145t-145 60t-145 -60t-60 -145h-102q0 98 55.5 176t144.5 111q-45 28 -71.5 74t-26.5 100q0 85 60 145t145 60t145 -60t60 -145q0 -54 -26.5 -100t-71.5 -74q89 -33 144.5 -111t55.5 -176zM716.5 402q-42.5 0 -72.5 -30t-30 -72t30 -72
t72.5 -30t72.5 30t30 72t-30 72t-72.5 30zM414 433q1 0 22 -10q-20 -45 -24 -101q-50 29 -105 29q-85 0 -145 -60t-60 -145h-102q0 98 55.5 176t144.5 111q-45 28 -71.5 74t-26.5 100q0 85 60 145t145 60t145 -60t60 -145q0 -54 -26.5 -100t-71.5 -74zM307.5 710
q-42.5 0 -72.5 -30t-30 -72.5t30 -72.5t72.5 -30t72.5 30t30 72.5t-30 72.5t-72.5 30z" />
    <glyph glyph-name="uniE554" unicode="&#xe554;" 
d="M793.5 -122q-31.5 0 -54 22.5t-22.5 54.5q0 19 19 64t38 80l20 35q76 -136 76 -179q0 -32 -22.5 -54.5t-54 -22.5zM103 259l332 328l332 -328l-332 -329zM435 514l-230 -226h461zM287 660l37 37l111 -110l-37 -36z" />
    <glyph glyph-name="uniE555" unicode="&#xe555;" 
d="M512 -122q-111 0 -205.5 55t-149.5 149.5t-55 205.5t55 205.5t149.5 149.5t205.5 55t205.5 -55t149.5 -149.5t55 -205.5t-55 -205.5t-149.5 -149.5t-205.5 -55zM512 646q-97 0 -179.5 -48t-130.5 -130.5t-48 -179.5t48 -179.5t130.5 -130.5t179.5 -48t179.5 48
t130.5 130.5t48 179.5t-48 179.5t-130.5 130.5t-179.5 48zM461 237v307h51v-256h205v-51h-256z" />
    <glyph glyph-name="uniE556" unicode="&#xe556;" 
d="M512 -224q-139 0 -257 68.5t-186.5 186.5t-68.5 257t68.5 257t186.5 186.5t257 68.5t257 -68.5t186.5 -186.5t68.5 -257t-68.5 -257t-186.5 -186.5t-257 -68.5zM512 749q-94 0 -179 -36.5t-147 -98.5t-98.5 -147t-36.5 -179t36.5 -179t98.5 -147t147 -98.5t179 -36.5
t179 36.5t147 98.5t98.5 147t36.5 179t-36.5 179t-98.5 147t-147 98.5t-179 36.5zM485 119l-35 -36l-35 36l-159 161l35 36l159 -162l283 288l35 -36z" />
    <glyph glyph-name="uniE557" unicode="&#xe557;" 
d="M819 34l-53 -53l-254 254l-254 -254l-53 53l254 254l-254 254l53 53l254 -254l254 254l53 -53l-254 -254z" />
    <glyph glyph-name="uniE558" unicode="&#xe558;" 
d="M819 237h-256v-256h-102v256h-256v102h256v256h102v-256h256v-102z" />
    <glyph glyph-name="uniE559" unicode="&#xe559;" 
d="M512 -224q-139 0 -257 68.5t-186.5 186.5t-68.5 257t68.5 257t186.5 186.5t257 68.5t257 -68.5t186.5 -186.5t68.5 -257t-68.5 -257t-186.5 -186.5t-257 -68.5zM512 783q-101 0 -192.5 -39t-158 -105.5t-105.5 -158t-39 -192.5t39 -192.5t105.5 -158t158 -105.5
t192.5 -39t192.5 39t158 105.5t105.5 158t39 192.5t-39 192.5t-105.5 158t-158 105.5t-192.5 39zM529 -19h-34v290h-290v34h290v290h34v-290h290v-34h-290v-290z" />
    <glyph glyph-name="uniE55A" unicode="&#xe55a;" 
d="M768 353l-230 -218l-39 36l-191 182l38 37l192 -182l191 182z" />
    <glyph glyph-name="uniE55B" unicode="&#xe55b;" 
d="M486 -173q-99 0 -189 38.5t-155 103.5t-103.5 155.5t-38.5 189.5t38.5 189t103.5 155t155 103.5t189 38.5t189.5 -38.5t155.5 -103.5t103.5 -155t38.5 -189t-38.5 -189.5t-103.5 -155.5t-155.5 -103.5t-189.5 -38.5zM486.5 749q-88.5 0 -169 -34.5t-139 -93t-93 -139
t-34.5 -169t34.5 -169t93 -139t139 -93t169 -34.5t169 34.5t139 93t93 139t34.5 169t-34.5 169t-93 139t-139 93t-169 34.5zM512 83h-51v256h-154l179 205l180 -205h-154v-256z" />
    <glyph glyph-name="uniE55C" unicode="&#xe55c;" 
d="M717 237v102h102v-102h-102zM461 339h102v-102h-102v102zM205 339h102v-102h-102v102z" />
    <glyph glyph-name="uniE55D" unicode="&#xe55d;" 
d="M973 -104l-69 -69l-190 191q-112 -88 -253 -88q-111 0 -205.5 54.5t-149.5 149t-55 205.5t55 205.5t149.5 149.5t205.5 55t205.5 -55t149 -149.5t54.5 -205.5q0 -141 -88 -253zM461 646q-127 0 -217 -90t-90 -217t90 -217t217 -90t217 90t90 217t-90 217t-217 90z" />
    <glyph glyph-name="uniE55E" unicode="&#xe55e;" 
d="M922 -50l-72 -72l-389 389l-389 -389l-72 72l389 389l-389 389l72 72l389 -389l389 389l72 -72l-389 -389z" />
    <glyph glyph-name="uniE565" unicode="&#xe565;" 
d="M512 -224q-139 0 -257 68.5t-186.5 186.5t-68.5 257t68.5 257t186.5 186.5t257 68.5t257 -68.5t186.5 -186.5t68.5 -257t-68.5 -257t-186.5 -186.5t-257 -68.5zM512 787q-102 0 -194 -39.5t-159 -106.5t-106.5 -159t-39.5 -194t39.5 -194t106.5 -159t159 -106.5
t194 -39.5t194 39.5t159 106.5t106.5 159t39.5 194t-39.5 194t-106.5 159t-159 106.5t-194 39.5zM666 109h-308q-53 0 -90.5 37.5t-37.5 90.5t37.5 90.5t90.5 37.5q0 63 45 108t109 45t109 -45t45 -108q53 0 90.5 -37.5t37.5 -90.5t-37.5 -90.5t-90.5 -37.5zM435.5 339
q-10.5 0 -18 -7.5t-7.5 -18t7.5 -18t18 -7.5t18 7.5t7.5 18t-7.5 18t-18 7.5zM451 229q-11 -8 -19 -18q31 -38 80 -38t80 38q-8 10 -19 18q-23 -31 -61 -31t-61 31zM588.5 339q-10.5 0 -18 -7.5t-7.5 -18t7.5 -18t18 -7.5t18 7.5t7.5 18t-7.5 18t-18 7.5z" />
    <glyph glyph-name="uniE566" unicode="&#xe566;" 
d="M512 -224q-139 0 -257 68.5t-186.5 186.5t-68.5 257t68.5 257t186.5 186.5t257 68.5t257 -68.5t186.5 -186.5t68.5 -257t-68.5 -257t-186.5 -186.5t-257 -68.5zM630 71.5q10 -2.5 19.5 3t11.5 15.5q4 13 -11 56q-34 -29 -38 -43q-3 -10 2.5 -19.5t15.5 -12zM502 -56.5
q10 -2.5 19.5 3t11.5 15.5q4 13 -11 56q-34 -29 -38 -43q-3 -10 2.5 -19.5t15.5 -12zM374 71.5q10 -2.5 19.5 3t11.5 15.5q4 13 -11 56q-34 -29 -38 -43q-3 -10 2.5 -19.5t15.5 -12zM666 467q0 64 -45 109t-109 45t-109 -45t-45 -109q-53 0 -90.5 -37.5t-37.5 -90.5
t37.5 -90.5t90.5 -37.5h308q53 0 90.5 37.5t37.5 90.5t-37.5 90.5t-90.5 37.5zM588.5 378q-10.5 0 -18 7.5t-7.5 18t7.5 18t18 7.5t18 -7.5t7.5 -18t-7.5 -18t-18 -7.5zM592 288q-8 -10 -19 -18q-23 31 -61 31t-61 -31q-11 8 -19 18q31 38 80 38t80 -38zM435.5 378
q-10.5 0 -18 7.5t-7.5 18t7.5 18t18 7.5t18 -7.5t7.5 -18t-7.5 -18t-18 -7.5z" />
    <glyph glyph-name="uniE567" unicode="&#xe567;" 
d="M307 -19v51h615v-51h-615zM307 288h615v-51h-615v51zM307 544h615v-51h-615v51zM102 83h103v-102h-103v102zM102 339h103v-102h-103v102zM102 595h103v-102h-103v102z" />
    <glyph glyph-name="uniE600" unicode="&#xe600;" horiz-adv-x="1000" 
d="M716 589q-294 108 -378 137q-23 11 -58 18l10 -21q7 -13 16 -45t6 -53q2 -24 -23 -46q-5 -3 -13 -9.5t-30 -25t-41 -36.5t-39.5 -42.5t-30.5 -45.5q-3 -3 -7 -8t-14 -24.5t-17.5 -42t-13.5 -60.5t-5 -81q0 -5 1.5 -14t9.5 -36.5t19.5 -53.5t33.5 -60t49.5 -62t70 -53.5
t93.5 -40.5l15 -3q10 -2 41 -6.5t61.5 -6t74.5 1.5t84.5 11.5t86 28t83 47.5t72 73.5t57.5 102.5l14 47q34 158 -57 279q-60 78 -171 130zM631 230q-11 -39 -25.5 -52.5t-27.5 -7t-24.5 20t-18.5 26t-7 13.5l78 81l-99 26q3 56 18 78.5t30 16.5l14 -5q22 -17 37 -44
t19.5 -52.5t6.5 -49t0 -37.5zM875 284q-12 -37 -27 -50t-28.5 -6.5t-25.5 19t-19 24.5t-7 13l81 77l-103 25q2 33 9 54t16 27.5t18 8t15 -0.5l6 -3q24 -17 39 -42.5t20 -50t7 -46.5t0 -36z" />
    <glyph glyph-name="uniE601" unicode="&#xe601;" horiz-adv-x="1280" 
d="M452 199q0 111 59 205.5t161.5 149.5t222.5 55q19 0 39 -2q-70 95 -181.5 150t-242.5 55q-103 0 -198 -36.5t-163 -98.5t-108.5 -147t-40.5 -179t40.5 -179.5t108.5 -147t163 -98.5t198 -37q44 0 87 7q-68 57 -106.5 136t-38.5 167zM895 554q-104 0 -192.5 -47.5
t-140 -129.5t-51.5 -178t51.5 -178t140 -129.5t192.5 -47.5t192.5 47.5t139.5 129.5t51 178t-51 178t-139.5 129.5t-192.5 47.5zM705 171q-26 0 -44 18.5t-18 44t18 44t44 18.5t44 -18.5t18 -44t-18 -44t-44 -18.5zM895 171q-26 0 -44 18.5t-18 44t18 44t44 18.5t44 -18.5
t18 -44t-18 -44t-44 -18.5zM1087 171q-26 0 -44 18.5t-18 44t18 44t43.5 18.5t44 -18.5t18.5 -44t-18.5 -44t-43.5 -18.5zM136 -171q51 -12 105 -12q135 0 246 73q-113 5 -212 51q-56 -72 -139 -112zM1072 -116q-75 -36 -159 -39q83 -57 184 -57q41 0 79 10q-62 30 -104 86z
" />
    <glyph glyph-name="uniE602" unicode="&#xe602;" 
d="M878 674l-393 -344l-185 171l-299 -231v60l299 230l185 -170l347 324l-86 85l222 1l2 -218zM256 -218h-255v305l255 204v-509zM609 270v-488h-251v509l127 -141zM969 -218h-254v560l254 218v-778z" />
    <glyph glyph-name="uniE603" unicode="&#xe603;" 
d="M1023 641q0 -34 -33.5 -88.5t-84.5 -114t-103.5 -117.5t-99 -114t-62.5 -88v-249v-1v-29q0 -27 -19 -45.5t-45 -18.5h-128q-26 0 -45 18.5t-19 45.5v29v1v249q-16 32 -62.5 88t-99 114t-103.5 117.5t-84.5 114t-33.5 88.5h1v1l-1 2q0 26 41 53t108.5 49t163.5 36.5
t198 14.5t198 -14.5t163.5 -36.5t108.5 -49t41 -53l-1 -2v-1h1zM517 734q-194 0 -323 -30t-129 -83q0 -36 60.5 -69t166 -54t225.5 -21t223 21t160.5 54t57.5 69q0 53 -124 83t-317 30z" />
    <glyph glyph-name="uniE604" unicode="&#xe604;" 
d="M64 -84v768h896v-768h-896zM192 620h-64v-64h64v64zM320 620h-64v-64h64v64zM448 620h-64v-64h64v64zM896 492h-768v-512h768v512zM768 300h-512v64h512v-64zM768 108h-512v64h512v-64z" />
    <glyph glyph-name="uniE605" unicode="&#xe605;" 
d="M593 374v426q194 0 309.5 -116.5t115.5 -309.5h-425zM958 238q0 -131 -60 -236t-167 -164t-241 -59q-100 0 -190.5 38.5t-156 103t-104.5 154t-39 187.5q0 133 57.5 242t163 172.5t237.5 63.5h13h17h12v-459h458v-43zM916 238h-458v460q-122 0 -218.5 -57.5t-149 -156.5
t-52.5 -222q0 -90 35.5 -173t96.5 -142.5t144.5 -95t175.5 -35.5q124 0 221 54t151 150.5t54 217.5z" />
    <glyph glyph-name="uniE606" unicode="&#xe606;" 
d="M3 -224v1024h713l208 -205v-819h-921zM822 547h-205v151h-512v-816h717v665zM259 390h-52v52h52v-52zM259 237h-52v51h52v-51zM259 83h-52v51h52v-51zM720 390h-410v52h410v-52zM720 237h-410v51h410v-51zM720 83h-410v51h410v-51z" />
    <glyph glyph-name="uniE607" unicode="&#xe607;" 
d="M288 334h1v-1l103 -106l36 37l-56 58l89 93l12 -2h9t19 2l-67 68l-4 4q16 56 1.5 116t-56.5 104q-43 43 -100 58.5t-111 -0.5l123 -128l-32 -125l-121 -33l-123 127q-16 -55 -1 -114.5t57 -103.5q44 -45 105 -59.5t116 5.5zM653 257q-3 -14 -2 -28l2 -12l-9 -9l-81 -84
l-56 58l-36 -37l325 -336q30 -31 72.5 -31t73 31t30.5 75t-30 75zM904 -156l-52 -15l-41 44l13 53l52 14l42 -43zM507 218l56 -58l64 66q-6 53 30.5 90t87.5 32l279 288l-156 161l-279 -288q5 -53 -31 -90.5t-87 -31.5l-64 -66l56 -58l-275 -285l-10 11l-53 -44l-89 -145
l22 -24l141 92l43 55l-11 10z" />
    <glyph glyph-name="uniE608" unicode="&#xe608;" 
d="M872 -12h-546l-317 -203v863q0 63 44.5 107.5t107.5 44.5h711q63 0 107.5 -44.5t44.5 -107.5v-508q0 -63 -44.5 -107.5t-107.5 -44.5zM922 597q0 38 -26.5 69.5t-74.5 31.5h-609q-49 0 -75.5 -28t-26.5 -67v-412q0 -37 32.5 -69.5t69.5 -32.5h609q45 0 73 30t28 72v406z
M744.5 343q-31.5 0 -53.5 22.5t-22 54t22 53.5t53.5 22t54 -22t22.5 -53.5t-22.5 -54t-54 -22.5zM491.5 343q-31.5 0 -54 22.5t-22.5 54t22.5 53.5t54 22t53.5 -22t22 -53.5t-22 -54t-53.5 -22.5zM237.5 343q-31.5 0 -54 22.5t-22.5 54t22.5 53.5t54 22t53.5 -22t22 -53.5
t-22 -54t-53.5 -22.5z" />
    <glyph glyph-name="uniE609" unicode="&#xe609;" 
d="M508.5 -215q-103.5 0 -197.5 40t-162 108t-108.5 162t-40.5 197.5t40.5 197.5t108.5 162t162 108t197.5 40t198 -40t162.5 -108t108 -162t40 -197.5t-40 -197.5t-108 -162t-162.5 -108t-198 -40zM508.5 698q-110.5 0 -204 -54t-148 -147.5t-54.5 -204t54.5 -204t148 -148
t204 -54.5t204.5 54.5t148.5 148t54.5 204t-54.5 204t-148.5 147.5t-204.5 54zM542 205q0 -8 0.5 -10.5t0.5 -6.5q0 -12 -11 -22.5t-23 -10.5h-9q-13 0 -23.5 10t-10.5 23q-1 37 12 66t32 46.5t38 31.5t32 30t13 34q0 47 -21.5 65.5t-62.5 18.5q-37 0 -57 -22.5t-20 -61.5
q0 -24 -19 -33.5t-38 0.5t-19 33q0 38 11.5 66.5t27.5 44t38.5 25t39.5 12t36 2.5q16 1 34.5 -2.5t40 -13t38.5 -25t28 -41.5t11 -59t-12.5 -59t-30 -42.5t-35 -31t-29.5 -31.5t-12 -36zM504.5 114q15.5 0 27 -11t11.5 -26.5t-11.5 -26.5t-27 -11t-27 11t-11.5 26.5
t11.5 26.5t27 11z" />
    <glyph glyph-name="uniE60A" unicode="&#xe60a;" 
d="M846 -219h-775q-30 0 -50.5 20.5t-20.5 50.5v772q0 29 20.5 50t50.5 21h70v-36q0 -43 31 -74t75 -31t75 31t31 74v36h211v-36q0 -43 31 -74t75 -31t75 31t31 74v36h70q29 0 50 -21t21 -50v-772q0 -29 -21 -50t-50 -21zM846 449h-775v-597h775v597zM247 273h-106v106h106
v-106zM247 97h-106v106h106v-106zM247 -78h-106v105h106v-105zM423 273h-106v106h106v-106zM423 97h-106v106h106v-106zM423 -78h-106v105h106v-105zM599 273h-105v106h105v-106zM599 97h-105v106h105v-106zM599 -78h-105v105h105v-105zM776 273h-106v106h106v-106zM776 97
h-106v106h106v-106zM776 -78h-106v105h106v-105zM669 589q-29 0 -49.5 20.5t-20.5 48.5v73q0 29 20.5 49t49.5 20t49 -20t20 -49v-73q0 -28 -20 -48.5t-49 -20.5zM245.5 589q-28.5 0 -49 20.5t-20.5 48.5v73q0 29 20.5 49t49 20t49 -20t20.5 -49v-73q0 -28 -20.5 -48.5
t-49 -20.5z" />
    <glyph glyph-name="uniE60B" unicode="&#xe60b;" 
d="M896 94l-178 -178l-267 266q-64 -18 -131.5 -1t-116.5 66q-54 54 -69.5 128t10.5 141l216 -216l152 152l-216 216q67 26 141 10.5t128 -69.5q49 -49 66 -117t-2 -131z" />
    <glyph glyph-name="uniE60C" unicode="&#xe60c;" 
d="M608 -180v320h128v128h-448v-128h128v-320h-384v320h192v192h64h192v128h-192v320h448v-320h-192v-128h192h64v-192h192v-320h-384zM96 12v-128h256v128h-256zM672 524v128h-320v-128h320zM928 12h-256v-128h256v128z" />
    <glyph glyph-name="uniE60D" unicode="&#xe60d;" 
d="M592 -207l-537 506l536 508l34 -35l-500 -473l499 -471z" />
    <glyph glyph-name="uniE60E" unicode="&#xe60e;" 
d="M466 592q15 14 36.5 14t36.5 -14l456 -406q16 -15 20 -32.5t-10 -32.5l-113 -116q-15 -13 -36 -13t-36 13l-318 294l-289 -294q-15 -13 -36 -13t-36 13l-117 125q-15 13 -15 32t15 33z" />
    <glyph glyph-name="uniE60F" unicode="&#xe60f;" 
d="M485 -9q15 -13 36 -13t36 13l15 15h1l17 15l74 68h1l343 312q14 14 14 33t-14 32l-108 98q-15 13 -36 13t-36 -13l-308 -280l-324 292q-15 14 -36 14t-36 -14l-108 -97q-14 -14 -14 -33t14 -32z" />
    <glyph glyph-name="uniE610" unicode="&#xe610;" 
d="M619 784q14 15 33 15t32 -15l125 -117q13 -15 13 -36t-13 -36l-294 -289l294 -318q13 -15 13 -36t-13 -36l-116 -114q-15 -13 -32.5 -9t-32.5 20l-406 456q-14 15 -14 36t14 36z" />
    <glyph glyph-name="uniE611" unicode="&#xe611;" 
d="M412 -193q-14 -15 -33 -15t-33 15l-124 117q-14 15 -14 36t14 36l293 289l-293 318q-14 15 -14 36t14 36l116 114q14 13 32 9t32 -20l407 -456q13 -15 13 -36t-13 -36z" />
    <glyph glyph-name="uniE612" unicode="&#xe612;" 
d="M1009 -62l-7 7l-245 245q53 93 54 200q1 109 -52.5 202.5t-146 148t-202.5 55.5h-3q-109 0 -201.5 -53.5t-147 -146t-54.5 -201.5q-1 -110 52.5 -203t146 -148t202.5 -55h2q110 0 204 55l251 -252q14 -13 34 -13t34 13l79 79q13 14 13 34t-13 33zM619 179
q-88 -87 -212 -87h-1q-125 0 -212.5 89t-86.5 213q0 124 88 211.5t212 87.5h2q125 -1 212.5 -89.5t86.5 -213.5q-1 -124 -89 -211z" />
    <glyph glyph-name="uniE613" unicode="&#xe613;" 
d="M866.5 651.5q-97.5 97.5 -228 132t-261.5 0t-228.5 -132t-132 -228.5t0 -261.5t132 -228t228.5 -132t261.5 0t228 132t132 228t0 261.5t-132 228.5zM798 103l-101 -101l-187 186l-186 -186l-101 101l186 186l-186 187l101 101l186 -186l187 186l101 -101l-186 -187z" />
    <glyph glyph-name="uniE614" unicode="&#xe614;" 
d="M959 -62l-85 -85l-362 362l-362 -362l-85 85l362 362l-362 362l85 85l362 -362l362 362l85 -85l-362 -362z" />
    <glyph glyph-name="uniE615" unicode="&#xe615;" 
d="M387 -101l-386 -110l110 386l636 636l276 -276zM93 -119l243 83l-160 160z" />
    <glyph glyph-name="uniE616" unicode="&#xe616;" 
d="M151 800h731v-1024l-366 366l-365 -366v1024z" />
    <glyph glyph-name="uniE617" unicode="&#xe617;" 
d="M1024 170h-394v-394h-236v394h-394v236h394v394h236v-394h394v-236z" />
    <glyph glyph-name="uniE618" unicode="&#xe618;" 
d="M948 -179h-863q-30 0 -51 21t-21 51v72q0 29 21 50t51 21h863q29 0 50.5 -21t21.5 -50v-72q0 -30 -21.5 -51t-50.5 -21zM373 396v359h287v-359h216l-360 -360l-359 360h216z" />
    <glyph glyph-name="uniE619" unicode="&#xe619;" 
d="M562 347v453q90 0 174 -37t145 -98t97.5 -144.5t36.5 -173.5h-453zM451 -207q-90 0 -172 35t-141.5 94.5t-94.5 141t-35 171.5t37 175.5t98 148.5t145 101.5t174 38.5v-453h453q0 -89 -38.5 -173t-101.5 -145t-148.5 -98t-175.5 -37z" />
    <glyph glyph-name="uniE61A" unicode="&#xe61a;" 
d="M943 -224h-153q-22 0 -37 15t-15 36v921q0 21 15 36t37 15h153q21 0 36 -15t15 -36v-921q0 -21 -15 -36t-36 -15zM585 -224h-154q-21 0 -36 15t-15 36v409q0 22 15 37t36 15h154q21 0 36 -15t15 -37v-409q0 -21 -15 -36t-36 -15zM227 -224h-154q-21 0 -36 15t-15 36v665
q0 21 15 36t36 15h154q21 0 36 -15t15 -36v-665q0 -21 -15 -36t-36 -15z" />
    <glyph glyph-name="uniE61B" unicode="&#xe61b;" horiz-adv-x="1040" 
d="M1 201q-1 12 -1 49.5t1 54.5q11 4 35 24.5t49 39.5t72.5 32t103.5 8q45 -6 90 -32.5t80 -61t70.5 -73.5t63 -71.5t57.5 -53.5t54 -20q32 2 70.5 51t74.5 118t72.5 138t75 115.5t71.5 45.5v-104q-9 0 -28.5 -34.5t-43 -86.5t-57 -112.5t-68.5 -112.5t-79.5 -86.5
t-87.5 -34.5q-42 0 -87 28.5t-84.5 71t-78 86.5t-82.5 80t-83 45q-42 7 -72.5 1.5t-60.5 -22t-50.5 -33.5t-41.5 -32t-35 -18z" />
    <glyph glyph-name="uniE61C" unicode="&#xe61c;" 
d="M579 292q15 -13 15 -31v-178q0 -19 -15 -32t-36 -13t-35.5 13t-14.5 32v159l-100 89q-15 13 -16 30.5t14 32.5q33 33 77 -5zM517 -215q-98 0 -187 36.5t-154 97.5t-103 146t-38 178q0 24 18.5 41.5t44.5 17.5t44.5 -17.5t18.5 -41.5q0 -92 47.5 -170t130 -123.5
t179 -45.5t178.5 45.5t130 123.5t48 169.5t-48 169.5t-130 123.5t-179 45.5v-99l-252 159l252 159v-100q98 0 187.5 -36t154 -97.5t103 -146t38.5 -177.5t-38.5 -178t-103 -146t-154 -97.5t-187.5 -36.5z" />
    <glyph glyph-name="uniE61D" unicode="&#xe61d;" 
d="M967.5 -93q-22.5 0 -38 15.5t-15.5 38.5v654q0 23 15.5 38.5t38 15.5t38 -15.5t15.5 -38.5v-654q0 -23 -15.5 -38.5t-38 -15.5zM423 -85q-7 -8 -17 -8t-17 8l-51 57q-7 8 -7 19.5t7 19.5l254 273l-261 282q-7 8 -7 19t7 19l51 58q7 7 17 7t17 -7l329 -359q7 -8 7 -19.5
t-7 -19.5zM424 264l-323 -349q-7 -8 -17 -8t-17 8l-51 57q-7 8 -7 19.5t7 19.5l254 273l-260 282q-7 8 -7 19t7 19l51 58q7 7 17 7t17 -7l329 -359q7 -8 7 -19.5t-7 -19.5z" />
    <glyph glyph-name="uniE61E" unicode="&#xe61e;" 
d="M56.5 669q22.5 0 38 -15.5t15.5 -38.5v-654q0 -23 -15.5 -38.5t-38 -15.5t-38 15.5t-15.5 38.5v654q0 23 15.5 38.5t38 15.5zM601 661q7 8 17 8t17 -8l51 -57q7 -8 7 -19.5t-7 -19.5l-254 -273l261 -282q7 -8 7 -19t-7 -19l-51 -58q-7 -7 -17 -7t-17 7l-329 359
q-7 8 -7 19.5t7 19.5zM600 312l323 349q7 8 17 8t17 -8l51 -57q7 -8 7 -19.5t-7 -19.5l-254 -273l260 -282q7 -8 7 -19t-7 -19l-51 -58q-7 -7 -17 -7t-17 7l-329 359q-7 8 -7 19.5t7 19.5z" />
    <glyph glyph-name="uniE61F" unicode="&#xe61f;" 
d="M601 661q7 8 17 8t17 -8l51 -57q7 -8 7 -19.5t-7 -19.5l-254 -273l261 -282q7 -8 7 -19t-7 -19l-51 -58q-7 -7 -17 -7t-17 7l-329 359q-7 8 -7 19.5t7 19.5z" />
    <glyph glyph-name="uniE620" unicode="&#xe620;" 
d="M371 -86q-7 -7 -17 -7t-17 7l-51 58q-7 8 -7 19t7 19l253 273l-260 282q-7 8 -7 19.5t7 19.5l51 57q7 8 17 8t17 -8l329 -359q7 -8 7 -19t-7 -19z" />
    <glyph glyph-name="uniE621" unicode="&#xe621;" 
d="M510 28l511 511h-1021z" />
    <glyph glyph-name="uniE622" unicode="&#xe622;" 
d="M510 566l-510 -511h1021z" />
    <glyph glyph-name="uniE623" unicode="&#xe623;" 
d="M255 288l511 -510v1020z" />
    <glyph glyph-name="uniE624" unicode="&#xe624;" 
d="M784 288l-511 510v-1020z" />
    <glyph glyph-name="uniE625" unicode="&#xe625;" 
d="M512 -220q-103 0 -197.5 40t-162.5 108t-108 162.5t-40 197.5t40 197.5t108 162.5t162.5 108t197.5 40t197.5 -40t162.5 -108t108 -162.5t40 -197.5t-40 -197.5t-108 -162.5t-162.5 -108t-197.5 -40zM258 542q-21 0 -36 -15t-15 -36t15 -36t36 -15t36 15t15 36t-15 36
t-36 15zM258 339q-21 0 -36 -15t-15 -36t15 -36t36 -15t36 15t15 36t-15 36t-36 15zM258 136q-21 0 -36 -15t-15 -36t15 -36t36 -15t36 15t15 36t-15 36t-36 15zM766 542h-356q-21 0 -35.5 -15t-14.5 -36t14.5 -36t35.5 -15h356q21 0 36 15t15 36t-15 36t-36 15zM766 339
h-356q-21 0 -35.5 -15t-14.5 -36t14.5 -36t35.5 -15h356q21 0 36 15t15 36t-15 36t-36 15zM766 136h-356q-21 0 -35.5 -15t-14.5 -36t14.5 -36t35.5 -15h356q21 0 36 15t15 36t-15 36t-36 15z" />
    <glyph glyph-name="uniE626" unicode="&#xe626;" 
d="M273 -211l512 511l-512 512l-29 -29l482 -483l-482 -482z" />
    <glyph glyph-name="uniE627" unicode="&#xe627;" 
d="M510.5 -221q-103.5 0 -198 40.5t-163 109t-109 163t-40.5 198t40.5 198t109 163t163 109t198 40.5t198 -40.5t163 -109t109 -163t40.5 -198t-40.5 -198t-109 -163t-163 -109t-198 -40.5zM419 594q0 19 -13 31.5t-31.5 12.5t-31.5 -12.5t-13 -31.5v-46q0 -18 13 -30.5
t31.5 -12.5t31.5 12.5t13 30.5v46zM690 594q0 19 -13 31.5t-31.5 12.5t-31.5 -12.5t-13 -31.5v-46q0 -18 13 -30.5t31.5 -12.5t31.5 12.5t13 30.5v46zM804 527q0 18 -13 31t-32 13h-45v-22q0 -28 -20 -47.5t-48 -19.5t-48 19.5t-20 47.5v22h-135v-22q0 -28 -20 -47.5
t-48 -19.5t-48 19.5t-20 47.5v22h-45q-19 0 -32 -13t-13 -31v-490q0 -19 13 -32t32 -13h497q19 0 32 13t13 32v490zM295 402h432v-329h-432v329zM628 112h59v58h-59v-58zM628 209h59v58h-59v-58zM628 306h59v58h-59v-58zM530 112h59v58h-59v-58zM530 209h59v58h-59v-58z
M530 306h59v58h-59v-58zM432 112h59v58h-59v-58zM432 209h59v58h-59v-58zM432 306h59v58h-59v-58zM334 112h59v58h-59v-58zM334 209h59v58h-59v-58zM334 306h59v58h-59v-58z" />
    <glyph glyph-name="uniE628" unicode="&#xe628;" 
d="M896 -212v704h-710l197 -208l-45 -47l-274 287l46 48l228 239l45 -47l-197 -208h710h64v-64v-704h-64z" />
    <glyph glyph-name="uniE629" unicode="&#xe629;" horiz-adv-x="1031" 
d="M514 526q-10 -52 -29 -103l-60 -159h184l-57 150q-26 68 -38 112zM522.5 796q-103.5 0 -197.5 -40t-162 -108t-108.5 -162.5t-40.5 -197.5t40.5 -197.5t108.5 -162.5t162 -108t197.5 -40t197.5 40t162 108t108.5 162.5t40.5 197.5t-40.5 197.5t-108.5 162.5t-162 108
t-197.5 40zM694 42l-63 164h-227l-59 -164h-76l208 541h77l222 -541h-82z" />
    <glyph glyph-name="uniE62A" unicode="&#xe62a;" 
d="M896 236h-320v-320h-128v320h-320v128h320v320h128v-320h320v-128z" />
    <glyph glyph-name="uniE62B" unicode="&#xe62b;" 
d="M1018 236q-22 -174 -145.5 -298t-296.5 -146v-4h-128v4q-173 22 -296.5 146t-145.5 298h-6v128h6q22 174 145.5 298t296.5 146v4h128v-4q173 -22 296.5 -146t145.5 -298h6v-128h-6zM576 678v-186h-128v186q-120 -21 -207 -107.5t-107 -206.5h186v-128h-186
q20 -120 107 -206.5t207 -107.5v186h128v-186q120 21 207 107.5t107 206.5h-186v128h186q-20 120 -107 206.5t-207 107.5z" />
    <glyph glyph-name="uniE62C" unicode="&#xe62c;" horiz-adv-x="1028" 
d="M508.5 796q-103.5 0 -197.5 -40t-162 -108t-108.5 -162.5t-40.5 -197.5t40.5 -197.5t108.5 -162.5t162 -108t197.5 -40t197.5 40t162 108t108.5 162.5t40.5 197.5t-40.5 197.5t-108.5 162.5t-162 108t-197.5 40zM565 15h-67v424q-24 -23 -63 -46t-70 -34v64
q56 26 97.5 63.5t59.5 72.5h43v-544z" />
    <glyph glyph-name="uniE62D" unicode="&#xe62d;" horiz-adv-x="1028" 
d="M508.5 796q-103.5 0 -197.5 -40t-162 -108t-108.5 -162.5t-40.5 -197.5t40.5 -197.5t108.5 -162.5t162 -108t197.5 -40t197.5 40t162 108t108.5 162.5t40.5 197.5t-40.5 197.5t-108.5 162.5t-162 108t-197.5 40zM240 450l89 -73l191 190l36 -40l-223 -224l-126 104z
M249 31l-36 37l525 526l39 -39zM792 56l-38 -37l-87 85l-83 -83l-42 44l84 80l-76 75l37 40l80 -77l79 77l37 -39l-77 -78z" />
    <glyph glyph-name="uniE62E" unicode="&#xe62e;" 
d="M939 -202h-876q-26 0 -44.5 18.5t-18.5 44.5v876q0 26 18.5 44.5t44.5 18.5h876q26 0 44.5 -18.5t18.5 -44.5v-876q0 -26 -18.5 -44.5t-44.5 -18.5zM814 612l-376 -438l-250 188l-63 -126l313 -250l439 501z" />
    <glyph glyph-name="uniE62F" unicode="&#xe62f;" 
d="M961 -220h-889q-26 0 -44.5 19t-18.5 45v888q0 26 18.5 45t44.5 19h889q26 0 44.5 -19t18.5 -45v-888q0 -26 -18.5 -45t-44.5 -19zM922 694h-812v-812h812v812z" />
    <glyph glyph-name="uniE630" unicode="&#xe630;" 
d="M0 31l505 505l506 -505h-51l-455 455l-454 -455h-51z" />
    <glyph glyph-name="uniE631" unicode="&#xe631;" 
d="M512 788q101 0 193 -39.5t158.5 -106t106 -158.5t39.5 -193t-39.5 -193t-106 -158.5t-158.5 -105.5t-193 -39t-193 39t-158.5 105.5t-106 158.5t-39.5 193t39.5 193t106 158.5t158.5 106t193 39.5z" />
    <glyph glyph-name="uniE632" unicode="&#xe632;" 
d="M377 611h572q27 0 47 -19t20 -46.5t-20 -46.5t-47 -19h-572q-28 0 -47.5 19t-19.5 46.5t19.5 46.5t47.5 19zM377 349h572q27 0 47 -19t20 -46.5t-20 -46.5t-47 -19h-572q-28 0 -47.5 19t-19.5 46.5t19.5 46.5t47.5 19zM377 87h572q27 0 47 -19t20 -46.5t-20 -46.5
t-47 -19h-572q-28 0 -47.5 19t-19.5 46.5t19.5 46.5t47.5 19zM13 276q-11 11 0 23l4 5l5 5l23 24l102 110q11 12 22 0l32 -34q11 -12 0 -23l-92 -99l96 -104q11 -11 0 -23l-32 -34q-11 -12 -21 0z" />
    <glyph glyph-name="uniE633" unicode="&#xe633;" 
d="M516.5 768q-98.5 0 -188 -38.5t-154.5 -103.5t-103.5 -154.5t-38.5 -188t38.5 -188t103.5 -154.5t154.5 -103.5t188 -38.5t188 38.5t154.5 103.5t103.5 154.5t38.5 188t-38.5 188t-103.5 154.5t-154.5 103.5t-188 38.5zM518 19l-67 62q-194 188 -199 304q-2 65 61 99
q34 18 68 19.5t57 -9.5t41.5 -26t27.5 -25.5t9 -12.5q3 5 9.5 13t27 25t42.5 26.5t56 8.5t68 -19q137 -74 -28 -286q-76 -96 -173 -179z" />
    <glyph glyph-name="uniE634" unicode="&#xe634;" 
d="M975 -157h-918q-20 0 -27.5 19t2.5 38q46 80 233.5 410t223.5 394q25 42 53 -5q429 -752 456 -798q13 -21 6 -39.5t-29 -18.5zM514 470q-21 0 -35 -13.5t-14 -42.5q0 -41 24 -298h49q25 254 25 298q0 56 -49 56zM514 64q-20 0 -34.5 -15t-14.5 -36.5t14.5 -37t34.5 -15.5
t34.5 15.5t14.5 37t-14.5 36.5t-34.5 15z" />
    <glyph glyph-name="uniE635" unicode="&#xe635;" 
d="M693 663q7 -27 8 -37t1 -36q0 -1 -3.5 -43.5t-2.5 -54.5q1 -7 2 -11t4.5 -9.5t5.5 -9.5q12 -27 3 -79q-5 -28 -15 -41q-3 -5 -15 -11.5t-16 -13.5q-6 -11 -7 -35t-4 -32q-2 -9 -14 -24t-13 -33q15 -2 27 -4q29 -62 43 -72q35 -10 44 -12q28 -12 84 -37t72 -31
q10 -5 34.5 -13.5t37 -14.5t26.5 -19t20 -30q0 -11 1.5 -71t0.5 -86h-1001q-1 26 0.5 86t1.5 71q6 17 20 30t26.5 19t37 14.5t33.5 13.5q16 6 72 31t85 37q14 4 44 12q14 10 43 72l20 5q-3 15 -14 27.5t-13 20.5q-1 14 -4 42t-4 42q0 -1 -5 0t-10 2.5t-6 2.5q-8 5 -13.5 15
t-8.5 26t-4 25.5t-2.5 28.5t-1.5 21q0 4 7.5 19t4.5 29q-21 100 2 156t77 74q25 10 42.5 16t48.5 12t61.5 0t58.5 -24l20 -19l32 -6q7 -4 13.5 -14t9.5 -19z" />
    <glyph glyph-name="uniE636" unicode="&#xe636;" 
d="M494 -224l-24 16q-15 10 -59 44.5t-84 71t-89 91.5t-84 110t-59 124t-24 134q0 118 57.5 217.5t157.5 157.5t217.5 58t217 -58t157.5 -157.5t58 -217.5q0 -69 -24.5 -139t-63.5 -126.5t-86 -109t-94 -91t-86 -67.5t-63 -43zM503 729q-98 0 -181.5 -48.5t-132 -133
t-48.5 -183.5q0 -56 19.5 -113.5t51 -105t69.5 -92.5t75.5 -78.5t69 -58.5t50.5 -38.5t20 -13.5q8 5 21 13t51.5 36t73.5 58t77.5 76t73 92.5t51.5 106t21 118.5q0 99 -48.5 183.5t-132 133t-181.5 48.5zM530 235h-53v71h-71v53h71v70h53v-70h70v-53h-70v-71z" />
    <glyph glyph-name="uniE637" unicode="&#xe637;" 
d="M494 -224l-24 16q-15 10 -59 44.5t-84 71t-89 91.5t-84 110t-59 124t-24 134q0 118 57.5 217.5t157.5 157.5t217.5 58t217 -58t157.5 -157.5t58 -217.5q0 -69 -24.5 -139t-63.5 -126.5t-86 -109t-94 -91t-86 -67.5t-63 -43zM503 729q-98 0 -181.5 -48.5t-132 -133
t-48.5 -183.5q0 -56 19.5 -113.5t51 -105t69.5 -92.5t75.5 -78.5t69 -58.5t50.5 -38.5t20 -13.5q8 5 21 13t51.5 36t73.5 58t77.5 76t73 92.5t51.5 106t21 118.5q0 99 -48.5 183.5t-132 133t-181.5 48.5z" />
    <glyph glyph-name="uniE638" unicode="&#xe638;" 
d="M680 57q-77 -55 -171 -53q-12 0 -24 1q-2 0 -5.5 0.5t-4.5 0.5q-13 2 -19 3q-2 0 -11 2q-11 3 -17 5q-2 1 -5 2t-4 1q-12 4 -20 7q-1 1 -4 2q-13 6 -22 11q-1 0 -1 1q-37 20 -67 50q0 1 -1 1q-9 9 -17 20q-1 1 -2 2.5t-2 1.5q-64 82 -64 185h68q3 0 4.5 2.5t-0.5 5.5
l-114 173q-2 3 -4.5 3t-4.5 -3l-114 -173q-1 -3 0 -5.5t4 -2.5h68q0 -121 69 -221q0 -1 0.5 -1.5t0.5 -1.5q3 -4 14 -18l5 -7q9 -11 23 -25v-1q1 -1 2 -1q38 -39 87 -66l2 -2q12 -6 28 -13q1 -1 3.5 -2t3.5 -1q10 -5 25 -10l12 -4q8 -2 23 -6q12 -3 15 -3l3 -1q2 0 3 -1
q4 0 22 -2q1 -1 3 -1h4q22 -3 39 -3q120 0 220 71q16 11 19.5 30.5t-7.5 35t-30 19t-35 -7.5zM898 300q0 121 -68 221l-1 1l-1 2q-5 8 -17 22l-1 1q0 1 -1 2q-59 72 -144 109q-1 1 -3 2h-1q-12 5 -28 10q0 1 -3.5 2t-5.5 2q-10 3 -25 6q-12 3 -13 3t-3.5 1t-3.5 1
q-3 0 -6 0.5t-6.5 1t-5.5 0.5q-1 0 -5.5 0.5t-7.5 1.5q-13 1 -30 1q-1 0 -3 0.5t-3 0.5v-1h-1q-121 0 -220 -70q-16 -11 -19.5 -30t7.5 -35t30 -19.5t35 7.5q77 55 170 54q13 0 26 -2q1 0 4 -0.5t4 -0.5q11 -1 20 -3q1 0 9 -2l20 -5q1 0 3 -1l3 -1q12 -4 22 -8q1 0 1.5 -0.5
t1.5 -0.5q65 -29 110 -84v-1h1q66 -82 66 -188h-68q-3 0 -4.5 -2.5t0.5 -5.5l114 -173q2 -2 4.5 -2t4.5 2l114 173q1 3 0 5.5t-4 2.5h-68z" />
    <glyph glyph-name="uniE639" unicode="&#xe639;" 
d="M889 -111h-754q-49 0 -83.5 34.5t-34.5 83.5v754q0 49 34.5 83.5t83.5 34.5h754q49 0 83.5 -34.5t34.5 -83.5v-754q0 -49 -34.5 -83.5t-83.5 -34.5zM371 596v118h-95v-118h-94l141 -141l142 141h-94zM677 408h-471q-10 0 -17 -7t-7 -17t7 -17t17 -7h471q10 0 17 7t7 17
t-7 17t-17 7zM748 313h-542q-10 0 -17 -6.5t-7 -16.5t7 -17t17 -7h542q9 0 16 7t7 17t-7 16.5t-16 6.5zM182 195.5q0 -9.5 7 -16.5t17 -7h495q9 0 16 7t7 16.5t-7 16.5t-16 7h-495q-10 0 -17 -7t-7 -16.5zM771 125h-565q-10 0 -17 -7t-7 -17t7 -16.5t17 -6.5h565
q10 0 17 6.5t7 16.5t-7 17t-17 7z" />
    <glyph glyph-name="uniE63A" unicode="&#xe63a;" 
d="M858 -36q-29 77 -99 132.5t-163 74.5q54 27 87 79t33 115q0 89 -63.5 152.5t-153 63.5t-153 -63.5t-63.5 -152.5q0 -65 34.5 -117.5t90.5 -78.5q-89 -22 -156 -76.5t-95 -128.5q-62 66 -96 150.5t-34 177.5q0 98 38 187t102.5 153.5t153.5 102.5t186.5 38t186.5 -38
t153.5 -102.5t102.5 -153.5t38 -187q0 -93 -34 -177.5t-96 -150.5zM807 -84q-132 -104 -299.5 -104t-298.5 104q20 90 104 149t194.5 59t194.5 -59t105 -149zM331 364.5q0 69.5 49.5 119t119 49.5t119 -49.5t49.5 -119t-49.5 -119t-119 -49.5t-119 49.5t-49.5 119z" />
    <glyph glyph-name="uniE63B" unicode="&#xe63b;" 
d="M512 -113q-101 0 -193 39.5t-158.5 106t-106 158.5t-39.5 193t39.5 193t106 158.5t158.5 106t193 39.5t193 -39.5t158.5 -106t106 -158.5t39.5 -193t-39.5 -193t-106 -158.5t-158.5 -106t-193 -39.5zM686 512v53h-249v-45h165l-180 -103v-50h56q-22 -74 -68 -115l-2 31
l-43 -14v150h47v50h-47v119h-50v-119h-51v-50h51v-167q-6 -2 -20 -6q-25 -10 -38 -11l11 -53q53 18 78 27q6 3 29 12q8 -8 19 -21q10 -12 14 -16q89 70 116 183h49q-23 -136 -122 -206q21 -20 37 -37q108 81 132 243h42q0 -17 -2 -57q-2 -62 -4 -83q2 -47 -42 -45h-51
q0 -2 4 -15q4 -22 6 -31q43 0 60 1q74 -1 72 84l8 190h-204z" />
    <glyph glyph-name="uniE63C" unicode="&#xe63c;" 
d="M751 298q-18 4 -23 11t-1 12l4 6q1 2 3.5 6.5t6.5 18t4.5 25.5t-4.5 28t-18 29q-15 16 -41 21t-51 1t-48 -10.5t-38 -12.5l-14 -6q-11 -3 -18.5 -4.5t-11.5 0t-6 3.5t-2 8t1 10.5t3 14t3 15.5q0 17 -2.5 31.5t-12 30.5t-25.5 24.5t-45.5 8t-68.5 -14.5
q-116 -39 -235 -184q-24 -29 -23 -29q-73 -98 -72 -187q0 -9 1 -9q6 -54 32.5 -97t63.5 -69.5t87 -45t95.5 -27.5t97.5 -13q84 -6 174 14t167.5 68.5t109.5 116.5q19 40 19.5 75t-12 57t-32.5 39t-37 25t-31 10zM405 -54q-122 -5 -208 48t-86 135q0 80 85.5 138.5
t208.5 64.5q124 5 209 -41.5t85 -126.5q0 -82 -86.5 -147t-207.5 -71zM372 260q-117 -14 -140 -117q-7 -30 -4 -55v-6q0 -3 2.5 -12.5t6.5 -18t13 -19t22 -17.5q74 -36 139 -21.5t104 65.5q15 19 20.5 47t-2 57t-25.5 53t-53.5 37t-82.5 7zM331 45.5q-23 -2.5 -39 9
t-16 30.5q0 20 15 36.5t38 18.5q25 3 41 -9.5t16 -32.5q0 -19 -16 -34.5t-39 -18zM427 127q-7 -5 -15.5 -4.5t-12.5 7.5t-2.5 16.5t9.5 14.5q9 7 17.5 6t12.5 -8t1.5 -16.5t-10.5 -15.5zM830 365q10 0 17.5 6.5t8.5 15.5q1 2 1 3q14 127 -87 147q-32 7 -60 1q-11 0 -19 -7.5
t-8 -19t8 -19t19 -7.5q35 7 55.5 0.5t29 -22t10.5 -31.5t0 -28l-2 -13q0 -11 8 -18.5t19 -7.5zM811 678q-57 13 -134 -2q-1 0 -2 -0.5t-2 -0.5l-1 -1q-12 -3 -20 -13.5t-8 -24.5q0 -16 11.5 -27.5t27.5 -11.5q21 3 35 9q6 0 20 1.5t37 -4t46.5 -14.5t48 -30t41.5 -49
q30 -67 12 -129q-8 -19 -8 -37q0 -16 11.5 -25.5t27.5 -9.5t25.5 6t12.5 26q20 63 15 114.5t-22 89t-47.5 65.5t-62 44t-64.5 24z" />
    <glyph glyph-name="uniE63D" unicode="&#xe63d;" 
d="M167 349l-2 5l-1 8l-1 4v16l1 7l2 6l3 8l3 8l4 8l6 8v6v6l1 7l3 8l2 9l2 5l2 4l3 4l3 3v21l2 10l1 13l3 14l5 16l3 8l3 9l3 9l5 9l4 10l5 10l5 10l7 10l3 6l4 4l7 11l8 11l8 11l9 10l10 11l11 10l13 12l8 7l9 8l10 6l11 7l10 6l12 4l12 6l13 4l12 4l13 5l13 3l14 2l14 3
l28 3l15 1h44l14 -2l15 -1l15 -2l14 -3l15 -3l13 -4l15 -4l14 -5l13 -5l14 -6l13 -7l13 -7l12 -8l11 -7l5 -4l5 -3l10 -9l8 -8l8 -8l8 -9l7 -9l8 -9l5 -10l6 -9l6 -10l4 -9l9 -19l4 -10l3 -9l3 -10l3 -9l2 -8l2 -9l5 -17l3 -14l2 -14l1 -12l3 -17v-2l2 -4l6 -9l3 -6l3 -6
l4 -7l4 -8l2 -8l3 -9l2 -9v-5l1 -6v-4l-1 -5v-6l-1 -6l-3 -12l-3 -5l-2 -7v-1l1 -2l3 -5l13 -19l10 -15l5 -9l7 -11l6 -11l6 -13l7 -13l7 -16l4 -10l4 -9l4 -10l3 -9l2 -9l3 -9l3 -17l3 -17l1 -16v-22l-1 -8l-1 -13l-3 -12l-3 -11l-2 -4l-2 -6l-2 -3l-3 -5l-2 -3l-4 -4
l-2 -3l-3 -2l-4 -2l-3 -1l-3 -1h-4l-2 1l-5 2l-2 2l-3 1l-2 3l-3 2l-4 5l-5 7l-4 7l-4 5l-4 7l-6 11l-6 12v1h-2l-2 -2l-2 -3l-2 -4l-4 -12l-6 -16l-9 -20l-6 -10l-6 -10l-8 -12l-8 -11l-4 -6l-5 -5l-11 -12l1 -1l1 -1l6 -4l24 -11l10 -6l10 -6l10 -7l9 -7l4 -4l3 -4l4 -4
l2 -5l2 -4l2 -5v-4l1 -5l-1 -3v-3v-4l-2 -3l-1 -2l-1 -3l-5 -6l-4 -5l-3 -4l-3 -2l-6 -5l-8 -4l-8 -4l-8 -4l-10 -4l-5 -2l-4 -1l-11 -2l-12 -3l-11 -2l-13 -2l-13 -1l-13 -1h-41h-15l-14 2l-14 2l-15 1l-16 2l-15 4l-14 3l-15 4l-15 6l-15 4l-7 3l-7 2l-5 2l-4 1h-12l-14 1
h-7l-10 1l-5 -5l-8 -5l-11 -5l-12 -7l-8 -4l-7 -2l-17 -7l-9 -3l-10 -2l-13 -3h-9l-9 -1l-9 -1l-11 -1h-44l-24 1l-24 2l-13 2l-11 2l-12 1l-11 3l-11 3l-11 3l-9 3l-9 4l-9 4l-7 5l-7 5l-3 2l-3 4l-3 2l-2 3l-2 4l-1 3l-3 7l-1 3l-1 4v3l1 4v4l1 5v8l1 4l2 5l1 5l3 6l2 2
l2 2l4 6l4 3l4 2l3 2l5 2l4 2l5 3l5 2l6 2l7 1l6 1l8 1h8l2 1l1 1v1l-1 2l-5 2l-10 9l-7 6l-9 7l-8 9l-9 10l-10 12l-4 6l-5 7l-4 7l-4 9l-5 8l-4 9l-4 9l-4 10l-3 9l-2 12l-1 1h-1l-1 1h-1l-1 -1l-1 -1l-1 -2l-1 -2l-1 -2l-1 -4l-5 -9l-3 -5l-4 -5l-4 -5l-5 -6l-5 -6l-6 -5
l-5 -5l-6 -4l-7 -4l-6 -3l-7 -2h-8h-2h-1l-2 3l-2 2l-3 7l-1 3l-2 6l-2 5l-1 6l-2 12l-1 8v24l1 18l2 9l1 9l2 11l3 9l3 11l3 11l4 10l4 11l6 11l5 11l6 11l8 11l7 11l8 12l7 8l8 9l9 9l4 5l5 5l8 6l7 7l12 10l10 7z" />
    <glyph glyph-name="uniE63E" unicode="&#xe63e;" 
d="M185 489q36 0 61.5 23t25.5 55t-25.5 55t-61.5 23t-61.5 -23t-25.5 -55t25.5 -55t61.5 -23zM113 458l-54 -84l100 -63q2 -1 4.5 -2.5t8.5 -6t11.5 -10t10.5 -14.5t7.5 -18t1 -22t-7.5 -26q-14 -27 -58.5 -75.5t-81.5 -83.5l-37 -35l131 -82q29 61 51.5 108.5t29 61.5
t13 29.5t14.5 42.5q20 52 18.5 95.5t-29.5 71.5q-38 39 -57 54.5t-76 58.5zM966 480l-3 12q-2 8 -14.5 28t-31.5 36.5t-59 32t-91.5 20t-133.5 -6t-181 -38.5l30 60l-121 34q-2 -7 -6 -18t-17 -42.5t-27.5 -59.5t-38 -60.5t-48.5 -53.5q6 -3 14.5 -8t27 -16t30.5 -18l12 -6
q34 34 65 73q25 11 56 24q-51 -94 -95 -139l51 -45q35 34 73 74h44v-75h-170v-59h170v-143h-7q-46 2 -59 22q-6 10 -7 24.5t1.5 36t2.5 26.5h-117l-4 -2q-1 -4 -2 -11t-2 -27t0.5 -38t9 -39.5t21 -37t38.5 -26t59 -9.5q182 -5 287 76l17 -63l96 40l-65 159l-78 -24l15 -55
q-28 -21 -68 -34v125h165v59h-165v75h166v60h-295q37 44 43 64l-52 14q344 123 342 -64v-341q1 -2 1 -6.5t-1.5 -16.5t-4.5 -22.5t-12 -23.5t-21.5 -22t-33.5 -14t-49 -3l-72 15l-17 -69q4 -1 11 -2.5t28.5 -5.5t42.5 -6t50 -1.5t54.5 5t52.5 16t46.5 29.5t34 48t18.5 69
q24 225 -5 388z" />
    <glyph glyph-name="uniE63F" unicode="&#xe63f;" 
d="M895 -19h-564h-322l201 161v524q0 50 35.5 85.5t85.5 35.5h564q50 0 85.5 -35.5t35.5 -85.5v-564q0 -50 -35.5 -85.5t-85.5 -35.5zM825 591h-102v34h-62v-34h-108v32h-62v-32h-104v-51h104v-26h17l-5 -10q-2 -1 -2 -3h-112v-53h81q-33 -49 -86 -95q9 -34 15 -69
q24 20 47 43v-138h60v208q20 28 36 51h282v53h-254q2 2 4 7q2 4 2 6l-23 4v22h108v-26h62v26h102v51zM827 336h-109v2l83 34v55h-248v-51h163l-59 -23v-17h-130v-51h130v-24q0 -21 -22 -21q-21 0 -61 2q6 -28 12 -51q48 0 79 2q53 4 53 55v37h109v51z" />
    <glyph glyph-name="uniE640" unicode="&#xe640;" 
d="M944 193l-219 -141q-20 -17 -43 -3t-23 47q0 34 55 78l117 73q-81 50 -130 80q-26 16 -34 31.5t-8 41.5t14.5 44t35.5 8l235 -152q4 -2 10 -6t16 -19.5t9 -35.5q-1 -31 -35 -46zM488 -51q0 -2 -1 -5.5t-5 -12t-10.5 -15t-18 -12t-26.5 -5.5q-23 0 -32 12.5t-6 24.5l3 13
l140 672q1 2 1.5 5t4 11t8.5 14.5t16 11.5t26 5q22 0 32.5 -12t9.5 -24l-1 -11zM281 318l-115 -71q55 -34 101 -63q35 -25 52 -48t14 -56q0 -27 -22 -31.5t-67 21.5l-191 123q-35 24 -35 46q0 20 9 35t17 20l9 6q118 76 200 129q35 25 59.5 21.5t25.5 -32.5q1 -40 -9 -60
t-48 -40z" />
    <glyph glyph-name="uniE641" unicode="&#xe641;" 
d="M501 -5q-82 0 -160 22.5t-133 56.5t-97.5 72t-63 69.5t-20.5 49.5q0 19 20.5 54t63 78.5t97.5 82.5t133 65.5t160 26.5q83 0 162 -25t136 -62t101 -80t66 -80t22 -60q0 -22 -22 -55.5t-66 -71t-101 -69.5t-136 -53t-162 -21zM488 413q-32 0 -54.5 -23.5t-22.5 -56
t22.5 -56t54.5 -23.5t54.5 23.5t22.5 56t-22.5 56t-54.5 23.5zM719 453q47 -65 47 -130q0 -96 -65.5 -163.5t-158 -67.5t-158 67.5t-65.5 163.5q0 62 15.5 100.5t57.5 68.5q-64 -9 -123.5 -40t-96.5 -66.5t-59 -67.5t-22 -49q0 -15 17.5 -40t53.5 -55t83 -56.5t114 -44
t139 -17.5t140.5 16.5t117.5 41.5t86.5 54.5t56.5 56t19 44.5q0 16 -10 36.5t-31 45.5t-62 52t-96 50z" />
    <glyph glyph-name="uniE642" unicode="&#xe642;" 
d="M193 491h-29v-112q1 -56 -48 -55q-48 0 -48 55v112h-29v-105q-2 -82 76 -80q81 -3 78 81v104zM212 410h116v-19h-116v19zM410 491h-61v-182h62q96 -4 92 92q1 91 -93 90zM408 327h-29v144h29q66 1 65 -71q2 -76 -65 -73zM585 441h-57v-185h29v50h28q68 0 68 67
q1 68 -68 68zM579 324h-22v98h22q44 0 44 -49t-44 -49zM678 502h29v-192h-29v192zM823 324h-28q-34 0 -33 34v80h-29v-83q-1 -49 52 -48h68v131h-30v-114zM938 384q-35 4 -33 21q0 17 25 17q24 0 28 -19h26q-9 37 -56 38q-49 -2 -52 -36q0 -32 56 -41q31 -5 29 -22
q1 -18 -29 -18q-33 0 -59 30v-23q24 -25 59 -25q59 0 58 37q-1 33 -52 41z" />
    <glyph glyph-name="uniE643" unicode="&#xe643;" 
d="M502.5 747q94.5 0 161 -65.5t66.5 -158t-66.5 -158t-161 -65.5t-161 65.5t-66.5 158t66.5 158t161 65.5zM502.5 747q94.5 0 161 -65.5t66.5 -158t-66.5 -158t-161 -65.5t-161 65.5t-66.5 158t66.5 158t161 65.5zM417 225h190q121 0 207 -84.5t86 -203.5v-19
q0 -15 -9.5 -26.5t-31 -18.5t-44 -11.5t-61 -6t-68.5 -2t-79 -0.5h-190h-79q-26 0 -67.5 2t-62 6t-43.5 11t-32 18.5t-9 27.5v19q0 119 86 203.5t207 84.5z" />
    <glyph glyph-name="uniE644" unicode="&#xe644;" 
d="M896 474l-157 167q32 25 75 20t73.5 -38t32.5 -76t-24 -73zM865 451l3 -3l-252 -236l-157 167l252 236l3 -4v1h1l151 -161h-1zM588 186q-25 -13 -75.5 -21.5t-89.5 -5.5l-9 -8q-18 -17 -31 -3q-15 16 3 33l11 10q1 40 11 91.5t23 70.5l1 1l157 -167zM191 550v-546h462
v168h84v-252h-630v714h504v-84h-420z" />
    <glyph glyph-name="uniE645" unicode="&#xe645;" 
d="M960 358h-44q-15 0 -29 10t-19 25l-26 62q-7 13 -4.5 30.5t13.5 28.5l32 31q10 11 10 26.5t-10 25.5l-53 53q-11 10 -26 10t-26 -10l-32 -32q-10 -11 -27.5 -13.5t-30.5 5.5l-62 25q-15 5 -25.5 19t-10.5 29v44q0 16 -10.5 26.5t-26.5 10.5h-73q-16 0 -27 -10.5
t-11 -26.5v-44q0 -15 -10 -29.5t-25 -18.5l-62 -25q-13 -8 -30.5 -5.5t-27.5 13.5l-32 32q-11 10 -26.5 10t-25.5 -10l-53 -53q-10 -10 -10 -25.5t10 -26.5l32 -31q11 -11 13.5 -28.5t-5.5 -30.5l-25 -62q-5 -15 -19 -25.5t-29 -10.5l-44 1q-16 0 -26.5 -11t-10.5 -26v-74
q0 -16 10.5 -26.5t26.5 -10.5h44q15 0 29 -10.5t19 -25.5l25 -62q8 -13 5.5 -30.5t-13.5 -28.5l-32 -31q-10 -11 -10 -26.5t10 -25.5l53 -53q10 -10 25.5 -10t26.5 10l31 32q11 11 28.5 13.5t30.5 -5.5l62 -25q15 -5 25 -19t10 -29v-44q0 -16 11 -26.5t27 -10.5h73
q16 0 26.5 10.5t10.5 26.5v44q0 15 10.5 29t25.5 19l62 25q13 8 30.5 5.5t28.5 -13.5l31 -32q11 -10 26 -10t26 10l53 53q10 10 10 25.5t-10 26.5l-32 31q-11 11 -13.5 28.5t4.5 30.5l26 62q4 15 18.5 25.5t29.5 10.5h44q16 0 26.5 10.5t10.5 26.5v74q0 15 -10.5 26
t-26.5 11zM702 283.5q0 -76.5 -54.5 -130.5t-131 -54t-130.5 54t-54 130.5t54 131t130.5 54.5t131 -54.5t54.5 -131z" />
    <glyph glyph-name="uniE646" unicode="&#xe646;" 
d="M149 505h332v187h71v-187h331v-388h-67v46h-264v-315h-71v315h-265v-46h-67v388zM216 441v-215h265v215h-265zM816 441h-264v-215h264v215z" />
    <glyph glyph-name="uniE647" unicode="&#xe647;" 
d="M96 62h347v-49h-410v546h394v-52h-331v-186h312v-54h-312v-205zM902 13l-284 437q-14 22 -25 54h-2q8 -32 8 -90v-401h-60v546h71l281 -440q16 -27 22 -43h3q-6 40 -6 84v399h60v-546h-68z" />
    <glyph glyph-name="uniE648" unicode="&#xe648;" 
d="M146 800h732q60 0 103 -43t43 -103v-732q0 -60 -43 -103t-103 -43h-732q-60 0 -103 43t-43 103v732q0 60 43 103t103 43z" />
    <glyph glyph-name="uniE649" unicode="&#xe649;" 
d="M907 -117h-781q-18 0 -30.5 13t-12.5 31v713q0 18 12.5 31t30.5 13h781q18 0 30.5 -13t12.5 -31v-713q0 -18 -12.5 -31t-30.5 -13zM863 576q0 9 -6 15t-15 6h-651q-9 0 -15 -6t-6 -15v-584q0 -9 6 -15.5t15 -6.5h44q-1 2 -1 6t1 15.5t3.5 22.5t9.5 26t17.5 27t28.5 24
t41 19l83 30q18 28 27 30q6 1 0 16l-3 2q-2 1 -4 3.5t-3.5 11.5t-1.5 22v7q0 5 -0.5 6.5t-4.5 1.5q-8 0 -16 10t-8 31q0 24 1 28.5t5 5.5q1 4 -2.5 27.5t-3.5 49.5q0 35 30 60.5t82 25.5q7 0 -1 2q-4 1 -18 3l-32 6h3q1 -3 59 -10t59 -8q34 -21 43 -79q0 -26 -3 -49.5
t-3 -27.5q4 -1 5 -5.5t1 -28.5q0 -21 -8 -31t-15 -10q-4 0 -5 -1.5t-1 -6.5q1 -4 1 -7q0 -13 -2 -22t-4 -11.5t-4 -3.5l-2 -2q-7 -15 0 -16q3 -1 9.5 -8.5t11.5 -14.5l5 -7q6 -3 83 -30q23 -7 41 -19t28.5 -24t17.5 -27t9.5 -26t3.5 -22.5t1 -15.5t-1 -6h44q9 0 15 6.5
t6 15.5v584z" />
    <glyph glyph-name="uniE64A" unicode="&#xe64a;" 
d="M795 504q-53 0 -92 37l-369 -216q8 -23 8 -45q0 -43 -26 -79l139 -141q32 21 70 21q56 0 95.5 -40t39.5 -96.5t-39.5 -96.5t-95 -40t-95 40t-39.5 96q0 39 20 72l-141 144q-31 -17 -63 -17q-56 0 -95.5 40t-39.5 97t39.5 97t95.5 40q55 0 94 -39l368 215q-9 24 -9 47
q0 57 39.5 97t95.5 40t95.5 -40t39.5 -96.5t-39.5 -96.5t-95.5 -40z" />
    <glyph glyph-name="uniE64B" unicode="&#xe64b;" 
d="M934 328q-83 -231 -95 -244q-4 -3 -9 -3h-468q-12 0 -50 109.5t-67 206.5q-7 27 -32 27h-59q-26 0 -43.5 10.5t-21.5 25t0 29.5t22.5 25t44.5 10h80h49q25 0 42 -54q12 -34 45.5 -132.5t44.5 -130.5q11 -31 45 -31h292q16 0 24 7.5t13 23.5q10 27 28.5 76t23.5 63
q1 2 3 10l4 12q2 4 5.5 12.5t6.5 13t7.5 12t8.5 10.5l10 8q6 4 11.5 2.5t13.5 -2.5q29 -11 33 -31t-12 -65zM856 611q-27 -4 -53 -16.5t-44.5 -28t-33 -30t-21.5 -24.5l-8 -10q18 -15 35 -37q13 -13 13.5 -21t-7.5 -10t-24 -3l-163 -1q4 112 10 173q5 42 31 12l29 -32l14 14
q9 9 39.5 27.5t62.5 29t79.5 8.5t93.5 -24q8 -6 12.5 -10.5t4.5 -6.5v-2l-4 1h-7.5t-12 -0.5t-19.5 -3t-27 -5.5zM478.5 52q29.5 0 52.5 -18.5t23 -46.5q0 -29 -23.5 -53.5t-52 -24.5t-52 24.5t-23.5 53.5q0 28 23 46.5t52.5 18.5zM726.5 52q31.5 0 53.5 -18t22 -47
q0 -31 -22.5 -54.5t-52.5 -23.5t-53 23.5t-23 54.5q0 29 22 47t53.5 18z" />
    <glyph glyph-name="uniE64C" unicode="&#xe64c;" 
d="M547 456l215 271l-38 31l-239 -302h-4l-170 137l-27 -34l128 -103h-307v-629h787v629h-345zM629 -114q-19 0 -32.5 13.5t-13.5 32.5t13.5 33t32.5 14t32.5 -14t13.5 -33t-13.5 -32.5t-32.5 -13.5zM745 -114q-19 0 -32.5 13.5t-13.5 32.5t13.5 33t32.5 14t32.5 -14
t13.5 -33t-13.5 -32.5t-32.5 -13.5zM819 27h-640v362h640v-362zM490 284v-207l105 103z" />
    <glyph glyph-name="uniE64D" unicode="&#xe64d;" 
d="M849 37h-30l61 -153l-242 153h-182q-50 0 -85.5 35.5t-35.5 86.5v214q0 51 35.5 86.5t85.5 35.5h393q51 0 86.5 -35.5t35.5 -86.5v-214q0 -51 -35.5 -86.5t-86.5 -35.5zM497.5 338q-23.5 0 -40 -16.5t-16.5 -40t16.5 -40t40 -16.5t40 16.5t16.5 40t-16.5 40t-40 16.5z
M648.5 338q-23.5 0 -40 -16.5t-16.5 -40t16.5 -40t40 -16.5t40.5 16.5t17 40t-17 40t-40.5 16.5zM800.5 338q-23.5 0 -40 -16.5t-16.5 -40t16.5 -40t40 -16.5t40 16.5t16.5 40t-16.5 40t-40 16.5zM305 373v-201l-167 -105l61 153q-57 0 -97 40.5t-40 97.5v183q0 57 40 97.5
t97 40.5h393q57 0 96.5 -40.5t39.5 -97.5v-15h-272q-63 0 -107 -45t-44 -108zM194.5 527q-23.5 0 -40 -16.5t-16.5 -40t16.5 -40t40 -16.5t40.5 16.5t17 40t-17 40t-40.5 16.5z" />
    <glyph glyph-name="uniE64E" unicode="&#xe64e;" 
d="M512 -173q-90 0 -166 43.5t-120.5 119.5t-44.5 165v262q0 89 44.5 164.5t120.5 119.5t166 44t166 -44t120.5 -119.5t44.5 -164.5v-262q0 -89 -44.5 -165t-120.5 -119.5t-166 -43.5zM790 412q0 111 -81.5 189t-196.5 78t-196.5 -78t-81.5 -189v-253q0 -110 81.5 -188.5
t196.5 -78.5t196.5 78.5t81.5 188.5v253zM525 299q-22 0 -37.5 16t-15.5 39v153q0 22 15.5 38t37.5 16t37.5 -16t15.5 -38v-153q0 -23 -15.5 -39t-37.5 -16z" />
    <glyph glyph-name="uniE64F" unicode="&#xe64f;" 
d="M740 731h-447q-31 0 -53 -22t-22 -53v-745q0 -31 22 -53t53 -22h447q31 0 53 22t22 53v745q0 31 -22 53t-53 22zM405 694l223 -1v-37h-223v38zM515.5 -108q-15.5 0 -26.5 11t-11 26.5t11 26.5t26.5 11t26.5 -11t11 -26.5t-11 -26.5t-26.5 -11zM740 23h-447v596h447v-596z
" />
    <glyph glyph-name="uniE650" unicode="&#xe650;" 
d="M798 738h-568q-31 0 -53 -22.5t-22 -53.5v-757q0 -31 22 -53.5t53 -22.5h568q31 0 53.5 22.5t22.5 53.5v757q0 31 -22.5 53.5t-53.5 22.5zM514.5 -133q-15.5 0 -27 11t-11.5 27t11.5 27t27 11t26.5 -11t11 -27t-11 -27t-26.5 -11zM798 -17h-569v678h569v-678z" />
    <glyph glyph-name="uniE651" unicode="&#xe651;" 
d="M919 21h-819q-13 0 -22.5 9.5t-9.5 23.5v620q0 13 9.5 22.5t22.5 9.5h819q14 0 23 -9.5t9 -22.5v-620q0 -14 -9 -23.5t-23 -9.5zM430 92h202q5 0 8 3t3 7.5t-3 7.5t-8 3h-202q-4 0 -7.5 -3t-3.5 -7.5t3.5 -7.5t7.5 -3zM875 629h-730v-461h730v461zM430 0h202v-64l53 -43
v-32h-308v32l53 43v64z" />
    <glyph glyph-name="uniE652" unicode="&#xe652;" 
d="M773 277q0 -40 16 -74t35 -53t44.5 -34.5t37 -19.5t20.5 -7l1 -1q-30 -80 -73 -138q-21 -29 -34.5 -45t-34.5 -36t-43.5 -29t-48.5 -10q-34 0 -83 19.5t-91 19.5t-91.5 -19.5t-80.5 -20.5q-25 -1 -48 9t-45 30.5t-37 38t-36 45.5q-35 47 -61.5 107.5t-40.5 127t-6 135
t41 121.5q35 56 93 88.5t125 33.5q37 1 97 -20.5t77 -21.5q15 0 49 13t75.5 24t76.5 8q18 -1 37 -4.5t48 -13t57.5 -30t50.5 -49.5q-11 -6 -16.5 -9.5t-30 -24t-39 -40t-28 -52.5t-13.5 -68zM497 579q-5 39 11.5 79.5t44.5 70.5q29 31 72 52t83 22q5 -41 -10.5 -82
t-44.5 -73.5t-71 -52t-85 -16.5z" />
    <glyph glyph-name="uniE653" unicode="&#xe653;" 
d="M837 68q-38 0 -38 58v262q0 58 38 58q24 0 40.5 -17t16.5 -41v-262q0 -24 -16.5 -41t-40.5 -17zM248 480q1 5 1.5 13.5t7.5 32.5t18.5 45.5t37 46.5t59.5 41l-43 59q-5 8 -3.5 18t9.5 16t17.5 4t15.5 -10l50 -70q47 12 101 12q47 0 86 -9l56 77q6 8 15.5 9.5t17.5 -4.5
t9.5 -16t-3.5 -18l-46 -63q36 -15 62.5 -40t38 -49t18 -46t7.5 -36v-13h-532zM419 591q-12 0 -20 -8.5t-8 -20.5t8 -20.5t20 -8.5t20.5 8.5t8.5 20.5t-8.5 20.5t-20.5 8.5zM581 562q0 -12 8 -20.5t20 -8.5t20.5 8.5t8.5 20.5t-8.5 20.5t-20.5 8.5t-20 -8.5t-8 -20.5zM191 68
q-23 0 -40 17t-17 41v262q0 24 17 41t40 17q38 0 38 -58v-262q0 -58 -38 -58zM780 39q0 -20 -14 -34.5t-33 -14.5h-10v-102q0 -26 -18 -44.5t-43.5 -18.5t-43.5 18.5t-18 44.5v102h-171v-102q0 -26 -18 -44.5t-43.5 -18.5t-44 18.5t-18.5 44.5v102h-9q-20 0 -34 14.5
t-14 34.5v407h532v-407z" />
    <glyph glyph-name="uniE654" unicode="&#xe654;" 
d="M877 291v-1q-81 -43 -158 -43q-94 0 -177 63l-1 1l83 325q76 -66 176 -66q77 0 159 41zM330 418h-2q-67 0 -158 -42l81 322q86 39 154 41h1q34 0 66 -9q18 -5 43 -18t41 -24l16 -10q-67 -259 -84 -324q-40 30 -76.5 46.5t-81.5 17.5zM299 339q7 1 16 1q57 0 120 -36
q13 -9 38 -26q-55 -213 -85 -329q-42 32 -79.5 48.5t-84.5 16.5q-68 0 -155 -40l82 323q14 7 28 12q61 25 120 30zM700 172q73 0 156 33l-79 -312q-96 -45 -169 -45q-11 0 -24.5 2.5t-26 6t-25 8.5t-24 11t-22 11.5t-19 10.5t-14.5 8.5t-9 5.5l-4 3l82 322q73 -65 178 -65z
" />
    <glyph glyph-name="uniE655" unicode="&#xe655;" 
d="M864 -124v1v1q0 80 -46.5 147t-127.5 106.5t-176 39.5t-175.5 -39.5t-127.5 -106.5t-47 -147v-1v-1h-74v1v1q0 122 87.5 217t223.5 126q-65 30 -105 90t-40 134q0 102 73 174t176 72t176 -72t73 -174q0 -72 -38.5 -131t-101.5 -90q141 -29 232.5 -125t91.5 -221v-1v-1
h-74zM699 444.5q0 79.5 -57 135.5t-137 56t-137 -56t-57 -135.5t57 -135.5t137 -56t137 56t57 135.5z" />
    <glyph glyph-name="uniE656" unicode="&#xe656;" 
d="M36 248l332 -98l408 338l-316 -364l354 -106l183 683zM445 55v-199l123 164z" />
    <glyph glyph-name="uniE657" unicode="&#xe657;" 
d="M927 528l-10 -9l-165 166l9 9q4 6 12.5 15t33.5 23.5t50 14.5q43 0 82 -40q76 -76 12 -154q-12 -15 -24 -25zM887 487l-588 -587l-246 -80l80 246l587 588zM127 -106l130 37l-93 93z" />
    <glyph glyph-name="uniE658" unicode="&#xe658;" 
d="M902 -224h-780q-29 0 -50 20.5t-21 50.5v776q0 30 21 50.5t50 20.5h71v-35q0 -44 31 -75t75 -31t75.5 31t31.5 75v35h212v-35q0 -44 31.5 -75t75.5 -31t75 31t31 75v35h71q29 0 50 -20.5t21 -50.5v-776q0 -30 -21 -50.5t-50 -20.5zM902 447h-780v-600h780v600zM723.5 588
q-28.5 0 -49 20.5t-20.5 49.5v72q0 29 20.5 49.5t49 20.5t49 -20.5t20.5 -49.5v-72q0 -29 -20.5 -49.5t-49 -20.5zM298 588q-29 0 -49.5 20.5t-20.5 49.5v72q0 29 20.5 49.5t49.5 20.5t49.5 -20.5t20.5 -49.5v-72q0 -29 -20.5 -49.5t-49.5 -20.5zM358 339h461v-103h-461v103
zM205 185h614v-102h-614v102zM205 32h256v-103h-256v103z" />
    <glyph glyph-name="uniE659" unicode="&#xe659;" 
d="M512 -105q-99 0 -189.5 39t-156 104.5t-104.5 156t-39 189.5t39 189.5t104.5 156t156 104.5t189.5 39t189.5 -39t156 -104.5t104.5 -156t39 -189.5t-39 -189.5t-104.5 -156t-156 -104.5t-189.5 -39zM757 628q-29 0 -52.5 -16t-33 -42.5t-1.5 -53.5t31 -44q6 -4 2 -11
q-46 -77 -99 -166q-4 -6 -10 -5q-23 2 -42 -9q-5 -2 -10 1q-76 56 -142 103q-5 4 -2 9q15 24 7 51q-6 20 -22.5 33t-37.5 14q-21 2 -39.5 -9t-27.5 -30t-4.5 -39.5t21.5 -34.5q5 -5 1 -12q-17 -28 -40 -67q-3 -6 -10 -5q-33 6 -55 -18.5t-12 -55.5q12 -35 51 -40
q17 -2 33.5 6.5t24.5 23.5q18 34 -6 64q-4 5 -1 11q18 29 43 71q3 5 9 5q18 -3 34 5q6 3 12 -2q86 -63 141 -102q5 -4 1 -10q-12 -21 -10 -44t17.5 -41.5t39 -25t46.5 2.5q44 16 50 60q6 42 -30 70l-1 1q-5 3 -2 8q31 51 100 167q3 5 8 4q15 -4 32 -1q36 6 57.5 32.5
t19.5 61.5q-3 34 -29.5 57t-61.5 23z" />
    <glyph glyph-name="uniE65A" unicode="&#xe65a;" 
d="M135 686q-3 0 -19 -11.5t-37.5 -33t-40.5 -48t-28 -61t-1 -67.5q25 -90 93 -309.5t72 -230.5q6 -20 29 -34.5t48 -20.5t56.5 -9t43.5 -3h19q-2 0 -6 0.5t-15.5 5.5t-22 13t-22.5 26t-21 42q-32 91 -96 328.5t-84 306.5q-8 27 0.5 53.5t19 39.5t12.5 13zM1012 164l-83 407
q-13 61 -37.5 87.5t-69.5 26.5l-572 19q-59 0 -84.5 -22t-13.5 -82l169 -599q24 -75 49.5 -98t73.5 -14l462 160q74 27 94.5 48.5t11.5 66.5zM908 217.5q-18 1.5 -30 15t-11 31.5l2 10l-59 40q-17 -12 -36 -10q-16 1 -29 10l-89 -76q7 -18 6 -37q-2 -33 -27.5 -55.5
t-59.5 -20t-56 28t-20 58.5q1 18 10 34l-101 98q-29 -16 -62 -13q-46 3 -77 38t-28 81.5t38.5 77.5t82 28t77.5 -38.5t27 -81.5q-2 -31 -19 -57l92 -101q22 12 47 10q21 -1 39 -13l99 66q-4 11 -3 23q1 24 19 39.5t41.5 14t39 -19.5t13.5 -41q0 -7 -3 -16l53 -46
q13 11 30 10q18 -2 29.5 -15.5t10.5 -31.5t-14.5 -30t-31.5 -10.5z" />
    <glyph glyph-name="uniE65B" unicode="&#xe65b;" 
d="M512 -103q-99 0 -189.5 38.5t-155.5 103.5t-103.5 155.5t-38.5 189.5t38.5 189.5t103.5 155.5t155.5 103.5t189.5 38.5t189.5 -38.5t155.5 -103.5t103.5 -155.5t38.5 -189.5t-38.5 -189.5t-103.5 -155.5t-155.5 -103.5t-189.5 -38.5zM806.5 513.5q-7.5 18.5 -17.5 27.5
q-5 6 -13 6.5t-13 -2.5q-19 -10 -42 -8t-38.5 17.5t-19 36.5t5.5 40q1 3 2 9t-2 11q-5 9 -14 16t-19.5 11.5t-21 7t-19.5 2.5q-6 0 -11.5 -5.5t-8.5 -10.5q-7 -20 -24.5 -32.5t-40.5 -12.5q-22 0 -38.5 13.5t-23.5 30.5q-2 6 -7 11.5t-13 5.5q-7 0 -18 -2t-23 -6.5
t-22 -11.5t-14 -16q-2 -4 -1 -9t2 -9t2 -14q1 -9 0 -20t-4.5 -22.5t-11.5 -19.5q-16 -15 -37.5 -18t-40.5 5q-6 2 -11 2.5t-10 -2.5q-7 -4 -12.5 -12.5t-9.5 -18t-6.5 -20t-2.5 -19.5q0 -8 3.5 -15.5t9.5 -9.5q20 -7 35.5 -24t15.5 -40t-15.5 -41t-35.5 -25q-11 -4 -13 -19
q-1 -8 1.5 -20t7.5 -23.5t11 -21t13 -11.5q10 -4 19 -2q14 5 28 6q12 0 25 -3t22 -12q15 -17 16.5 -36t-5.5 -34q-5 -12 -5 -18t4 -10q4 -7 13.5 -13.5t21 -11.5t22.5 -8t20 -3q8 0 14.5 3.5t10.5 11.5q7 19 25 34t40 15q23 0 40 -15t24 -35h1q2 -5 7.5 -9.5t10.5 -4.5
q9 0 20 2.5t21 7t18.5 10t12.5 10.5q9 13 2 26q-8 19 -5.5 40t18.5 38q7 7 17 10.5t20 4.5t20 -0.5t16 -3.5q8 -3 13.5 -3t13.5 4t14.5 13t11 20.5t6.5 22.5t1 19q-3 9 -10 15q-3 3 -8 6q-19 7 -31.5 23.5t-12.5 38.5q0 23 14.5 41t34.5 25q6 2 10.5 8.5t3.5 17.5
q-2 19 -9.5 37.5zM612 284.5q-19 -19.5 -45 -31t-55.5 -11.5t-55.5 11.5t-45 31t-30.5 45.5t-11.5 55t11.5 55t30.5 45.5t45 30.5t55.5 11t55.5 -11t45 -30.5t30.5 -45.5t11.5 -55t-11.5 -55t-30.5 -45.5zM512 445q-25 0 -43 -18t-18 -43t18 -43t43 -18t43 18t18 43t-18 43
t-43 18z" />
    <glyph glyph-name="uniE65C" unicode="&#xe65c;" 
d="M629 401l-66 -75h-49l65 75h50zM620 282l-56 -105h-44l56 105h-63v27h220v-99q-1 -4 -2.5 -9.5t-10 -14.5t-22.5 -9h-83v26h77v79h-72zM634 401h50l66 -75h-50zM763 199l7 135h26l-5 -135h-28zM876 378q-11 -29 -29 -29h-17v-156l-31 -20v176h-35v29h35v24h31v-24h46z
M832 334h26q8 -91 9 -115q0 -4 -7 -9t-14 -8l-7 -3zM26 402v-226q12 0 22.5 9t10.5 21v11h19q9 1 18 10.5t9 17.5v50q0 8 -16 20q16 14 16 21v66h-79zM72 327q0 -7 -7 -14l-2 -2q-1 -1 -2 -1h11v-65h-13v129h13v-47zM198 255v102h-80v-139h40q11 1 20 8q6 3 10 8
q10 11 10 21zM167 244h-17v86h17v-86zM110 402v-28h96v-198q10 0 22 8.5t12 22.5v167q4 0 8 10.5t4 17.5h-142zM402 202v21h67q9 0 24 25h-91v18h51q10 0 24 11t14 19v106h-216v-136h87v-18h-87v-25h87v-21h-90v-27h203q3 0 6.5 3t5.5 6.5t5.5 9.5t4.5 8h-95zM402 321h17
q5 0 8 3l6 6q5 5 9.5 10.5t5.5 6.5h-46v29h49v-84h-49v29zM362 292h-48v29h48v-29zM362 347h-48v29h48v-29zM973 322v-125l-35 -16v141h-22v-125l-35 -17v222h131q-11 -22 -33 -30h-63v-22h86q-4 -24 -17 -28h-12z" />
    <glyph glyph-name="uniE65D" unicode="&#xe65d;" 
d="M512 -36l-409 201l-62 34q0 -24 6 -48.5t21 -32.5l400 -192q26 -13 43 -13t45 13l400 192q14 7 20.5 32.5t6.5 48.5q-10 -5 -26.5 -14t-26 -14t-9.5 -6zM68 520l400 -192q26 -13 43 -13t45 13l400 192q23 11 23 46.5t-23 48.5l-400 226q-24 15 -42.5 14.5t-45.5 -14.5
l-400 -226q-23 -16 -23.5 -48.5t23.5 -46.5zM68 319l400 -192q26 -13 43 -13t45 13l400 192q14 7 20.5 32.5t6.5 48.5l-62 -33l-409 -202l-409 202l-62 33q0 -24 6 -48.5t21 -32.5z" />
    <glyph glyph-name="uniE65E" unicode="&#xe65e;" 
d="M1006 519l-595 -599q-11 -12 -27 -12t-27 12l-12 12l-13 13l-56 56v1q-1 0 -1 1l-257 261q-12 11 -12 27t12 27l81 82q11 11 27 11t27 -11l231 -235l487 490q11 11 27 11t27 -11l81 -82q12 -11 12 -27t-12 -27z" />
    <glyph glyph-name="uniE65F" unicode="&#xe65f;" 
d="M103 33h818q24 0 41 -17t17 -41t-17 -41t-41 -17h-818q-24 0 -41 17t-17 41t17 41t41 17zM249 501q36 0 62 -25.5t26 -62.5v-175q0 -36 -26 -62t-62 -26t-62 26t-26 62v175q0 37 26 62.5t62 25.5zM541.5 676q36.5 0 62 -25.5t25.5 -61.5v-351q0 -36 -25.5 -62t-62 -26
t-62 26t-25.5 62v351q0 36 25.5 61.5t62 25.5zM833.5 851q36.5 0 62 -25.5t25.5 -61.5v-526q0 -36 -25.5 -62t-62 -26t-62 26t-25.5 62v526q0 36 25.5 61.5t62 25.5z" />
    <glyph glyph-name="uniE660" unicode="&#xe660;" 
d="M101 707h822q38 0 65 -24.5t27 -59.5t-27 -59.5t-65 -24.5h-822q-38 0 -65 24.5t-27 59.5t27 59.5t65 24.5zM101 372h822q38 0 65 -24.5t27 -59.5t-27 -59.5t-65 -24.5h-822q-38 0 -65 24.5t-27 59.5t27 59.5t65 24.5zM101 37h822q38 0 65 -24.5t27 -59.5t-27 -59.5
t-65 -24.5h-822q-38 0 -65 24.5t-27 59.5t27 59.5t65 24.5z" />
    <glyph glyph-name="uniE661" unicode="&#xe661;" 
d="M46 -82v117h932v-117h-932zM46 268h932v-117h-932v117zM46 500h932v-116h-932v116zM745 850h233v-233h-233v233zM396 850h232v-233h-232v233zM46 850h233v-233h-233v233z" />
    <glyph glyph-name="uniE662" unicode="&#xe662;" 
d="M22 -104v98h980v-98h-980zM22 190h980v-98h-980v98zM22 386h980v-98h-980v98zM708 680h294v-196h-294v196zM365 680h294v-196h-294v196zM22 680h294v-196h-294v196z" />
    <glyph glyph-name="uniE663" unicode="&#xe663;" 
d="M582 -181v94h94v-94h-94zM582 147h94v-94h-94v94zM582 523h94v-94h-94v94zM582 757h94v-94h-94v94zM347 -87h94v-94h-94v94zM347 147h94v-94h-94v94zM347 523h94v-94h-94v94zM347 757h94v-94h-94v94z" />
    <glyph glyph-name="uniE664" unicode="&#xe664;" horiz-adv-x="2651" 
d="M2405 482q-114 0 -118 -85q-7 -79 150 -93q210 -29 214 -168q0 -153 -236 -153q-149 -4 -246 111v78q111 -125 243 -121q71 -2 105 18.5t31 63.5q3 82 -136 100q-232 35 -228 164q14 142 214 150q192 -4 228 -157h-93q-25 92 -128 92zM1588 183v353h103v-343
q-7 -146 154 -142h128v485h104v-546h-272q-221 -3 -217 193zM1363 800h103v-799h-103v799zM978 -13h-129v-211h-103v771h232q285 0 285 -286q0 -275 -285 -274zM953 479h-104v-428h104q203 0 203 214t-203 214zM264 -3h-264v757h264q382 -4 385 -375q15 -396 -385 -382z
M542 375q0 311 -285 311h-157v-628h153q296 -7 289 317z" />
    <glyph glyph-name="uniE665" unicode="&#xe665;" 
d="M887 -64h-750q-39 0 -66.5 27.5t-27.5 66.5v516q0 39 27.5 66.5t66.5 27.5h750q39 0 66.5 -27.5t27.5 -66.5v-516q0 -39 -27.5 -66.5t-66.5 -27.5zM277 546h-93v-93h93v93zM277 406h-93v-94h93v94zM277 265h-93v-94h93v94zM277 124h-93v-94h93v94zM418 546h-94v-93h94v93
zM418 406h-94v-94h94v94zM418 265h-94v-94h94v94zM418 124h-94v-94h94v94zM559 546h-94v-93h94v93zM559 406h-94v-94h94v94zM559 265h-94v-94h94v94zM700 546h-94v-93h94v93zM700 406h-94v-94h94v94zM840 546h-93v-93h93v93z" />
    <glyph glyph-name="uniE666" unicode="&#xe666;" 
d="M512 -216q-103 0 -196 40t-160.5 107.5t-107.5 160.5t-40 196t40 196t107.5 160.5t160.5 107.5t196 40t196 -40t160.5 -107.5t107.5 -160.5t40 -196t-40 -196t-107.5 -160.5t-160.5 -107.5t-196 -40zM699 429q-33 23 -65.5 25.5t-55 -9t-40.5 -27t-26.5 -28t-8.5 -13.5
q-3 6 -9 14t-26 26.5t-41.5 28.5t-54 8t-66.5 -25q-133 -89 32 -274q62 -69 167 -148l22 17q14 10 51.5 42.5t68.5 64t62 74.5t43 80.5t1 76.5t-54 67z" />
    <glyph glyph-name="uniE667" unicode="&#xe667;" 
d="M230 161h556v62h-556v-62zM786 384h-548v-55h548v55zM183 55v658h494l54 110h-658v-878h878v658l-110 -54v-494h-658zM622 501h115l97 93l-112 114l-100 -96v-111zM951 709l-112 114l-66 -64l113 -115z" />
    <glyph glyph-name="uniE668" unicode="&#xe668;" 
d="M512 -212q-139 0 -257 68.5t-186.5 186.5t-68.5 257t68.5 257t186.5 186.5t257 68.5t257 -68.5t186.5 -186.5t68.5 -257t-68.5 -257t-186.5 -186.5t-257 -68.5zM512 761q-94 0 -179 -36.5t-147 -98.5t-98.5 -147t-36.5 -179t36.5 -179t98.5 -147t147 -98.5t179 -36.5
t179 36.5t147 98.5t98.5 147t36.5 179t-36.5 179t-98.5 147t-147 98.5t-179 36.5zM768 362l-167 -170l7 -6l-34 -40l-10 8l-8 -8l-34 40l2 2l-164 135l-170 -174l-37 38l166 170l-7 6l34 40l10 -9l7 7l36 -37l-3 -3l165 -136l173 177h-120v52h154h16v0h35v-52v-153h-51v113z
" />
    <glyph glyph-name="uniE669" unicode="&#xe669;" 
d="M511.5 -212q-101.5 0 -194.5 39.5t-160 106.5t-106.5 159.5t-39.5 194.5t39.5 194.5t106.5 159.5t160 106.5t194.5 39.5t194 -39.5t159.5 -106.5t106.5 -159.5t39.5 -194.5t-39.5 -194.5t-106.5 -159.5t-159.5 -106.5t-194 -39.5zM511.5 688q-108.5 0 -201 -53.5
t-146 -145.5t-53.5 -201t53.5 -201t146 -145.5t201 -53.5t200.5 53.5t145.5 145.5t53.5 201t-53.5 201t-145.5 145.5t-200.5 53.5z" />
    <glyph glyph-name="uniE66A" unicode="&#xe66a;" 
d="M511.5 -212q-101.5 0 -194.5 39.5t-160 106.5t-106.5 159.5t-39.5 194.5t39.5 194.5t106.5 159.5t160 106.5t194.5 39.5t194 -39.5t159.5 -106.5t106.5 -159.5t39.5 -194.5t-39.5 -194.5t-106.5 -159.5t-159.5 -106.5t-194 -39.5zM511.5 688q-108.5 0 -201 -53.5
t-146 -145.5t-53.5 -201t53.5 -201t146 -145.5t201 -53.5t200.5 53.5t145.5 145.5t53.5 201t-53.5 201t-145.5 145.5t-200.5 53.5zM511 88q-83 0 -141.5 58.5t-58.5 141.5t58.5 141.5t141.5 58.5t141.5 -58.5t58.5 -141.5t-58.5 -141.5t-141.5 -58.5z" />
    <glyph glyph-name="uniE66B" unicode="&#xe66b;" 
d="M18 -206v988h346v-99h-247v-790h790v247h99v-346h-988zM898 217l-174 86l-175 -86l24 201l-132 148l190 39l93 177l93 -177l189 -39l-132 -148z" />
    <glyph glyph-name="uniE66C" unicode="&#xe66c;" 
d="M27 -197v970h970v-970h-970zM221 676h-97v-776h97v776zM900 676h-145v-485l-139 218l-153 -218v485h-145v-776h582v776z" />
    <glyph glyph-name="uniE66D" unicode="&#xe66d;" 
d="M512 -206q-100 0 -191.5 39t-158 105.5t-105.5 158t-39 191.5t39 191.5t105.5 158t158 105.5t191.5 39t191.5 -39t158 -105.5t105.5 -158t39 -191.5t-39 -191.5t-105.5 -158t-158 -105.5t-191.5 -39zM658 576l-62 -47l31 -32l-156 -127l-105 58l-48 -47l104 -104
l-157 -236l236 157l104 -104l47 48l-58 105l127 156l32 -31l47 62z" />
    <glyph glyph-name="uniE66E" unicode="&#xe66e;" 
d="M512 768q-98 0 -186.5 -38t-153 -102.5t-102.5 -153t-38 -186.5t38 -186.5t102.5 -153t153 -102.5t186.5 -38t186.5 38t153 102.5t102.5 153t38 186.5t-38 186.5t-102.5 153t-153 102.5t-186.5 38zM512 -64q-86 0 -159 42.5t-116 115.5t-43 159.5t43 159.5t116 115.5
t159 42.5v69l166 -110l-166 -111v69q-97 0 -166 -69t-69 -166t69 -165.5t166 -68.5t166 68.5t69 166.5q0 17 12 29t29 12t29 -12t12 -29q0 -87 -42.5 -160t-115.5 -115.5t-159 -42.5z" />
    <glyph glyph-name="uniE66F" unicode="&#xe66f;" 
d="M512 -211q-102 0 -194 39.5t-159 106.5t-106.5 159t-39.5 194t39.5 194t106.5 159t159 106.5t194 39.5t194 -39.5t159 -106.5t106.5 -159t39.5 -194t-39.5 -194t-106.5 -159t-159 -106.5t-194 -39.5zM179 287q34 -70 87.5 -118.5t114 -71t127.5 -22t128 23.5t116.5 71.5
t92.5 116.5q-49 86 -117.5 140.5t-142.5 70t-148.5 -0.5t-142 -70.5t-115.5 -139.5zM499 160q-58 0 -99.5 38t-41.5 92t41.5 92.5t99.5 38.5t99.5 -38.5t41.5 -92.5t-41.5 -92t-99.5 -38zM501 292q-4 3 -3.5 10t2.5 15.5t4 16.5t1 13.5t-6 5.5q-29 0 -50 -19.5t-21 -47
t21 -46.5t50.5 -19t50 19t20.5 47q0 9 -14.5 8t-29.5 -5t-25 2z" />
    <glyph glyph-name="uniE670" unicode="&#xe670;" 
d="M512 -218q-103 0 -197 40t-161.5 107.5t-107.5 161.5t-40 197t40 197t107.5 161.5t161.5 107.5t197 40t197 -40t161.5 -107.5t107.5 -161.5t40 -197t-40 -197t-107.5 -161.5t-161.5 -107.5t-197 -40zM765 339h-202v202h-102v-202h-202v-102h202v-202h102v202h202v102z
" />
    <glyph glyph-name="uniE671" unicode="&#xe671;" 
d="M914 -3q0 -68 -41.5 -108t-110.5 -40h-500q-69 0 -110.5 40t-41.5 108q0 30 2 59t8 62.5t15 62t24.5 55.5t35.5 46.5t49 31t63 11.5q6 0 24.5 -12.5t42.5 -27.5t62 -27.5t76 -12.5t76 12.5t62 27.5t42.5 27.5t24.5 12.5q34 0 63 -11.5t49 -31t35.5 -46.5t24.5 -55.5
t15 -62t8 -62.5t2 -59zM731 507.5q0 -90.5 -64 -155t-155 -64.5t-155 64.5t-64 155t64 155t155 64.5t155 -64.5t64 -155z" />
    <glyph glyph-name="uniE672" unicode="&#xe672;" 
d="M406 734q-64 -2 -83 -9q-8 -3 -14 -8.5t-8.5 -17t8.5 -26.5l85 -125h238q83 118 88 130q18 40 -18 46q-7 2 -28.5 6.5t-23 4t-19.5 0.5q-4 -1 -19.5 -7.5t-39 -12.5t-53.5 -7q-38 -2 -69 12t-44 14zM914 126q-28 65 -67.5 125t-76 100t-68.5 70t-51 45l-19 14h-245
q-7 -6 -20.5 -16t-52 -46t-73.5 -77t-77 -108.5t-71 -139.5q-17 -47 -8.5 -99t34.5 -84q57 -71 144 -67h2h505q10 0 25.5 3t39 11t46.5 26t37 44q47 86 -4 199zM622 161v-47h-78v-35h78v-44h-78v-62h-71v62h-78v44h78v35h-78v47h64l-85 149h75l64 -141l66 141h66l-86 -149
h63z" />
    <glyph glyph-name="uniE673" unicode="&#xe673;" 
d="M16 101h184v-250h-184v250zM283 475h189v-622h-189v622zM554 350h187v-497h-187v497zM824 723h184v-872h-184v872z" />
    <glyph glyph-name="uniE674" unicode="&#xe674;" 
d="M734 584v37q0 46 -32.5 78.5t-78.5 32.5h-444q-46 0 -78.5 -32.5t-32.5 -78.5v-444q0 -46 32.5 -78.5t78.5 -32.5h37v407q0 46 32.5 78.5t78.5 32.5h407zM845 510h-444q-46 0 -78.5 -32.5t-32.5 -78.5v-444q0 -46 32.5 -78.5t78.5 -32.5h444q46 0 79 32.5t33 78.5v444
q0 46 -33 78.5t-79 32.5zM808 -27q0 -8 -5 -13t-13 -5h-334q-7 0 -12.5 5t-5.5 13v37q0 8 5.5 13.5t12.5 5.5h334q8 0 13 -5.5t5 -13.5v-37zM808 158q0 -7 -5 -12.5t-13 -5.5h-334q-7 0 -12.5 5.5t-5.5 12.5v37q0 8 5.5 13.5t12.5 5.5h334q8 0 13 -5.5t5 -13.5v-37zM808 344
q0 -8 -5 -13.5t-13 -5.5h-334q-7 0 -12.5 5.5t-5.5 13.5v37q0 7 5.5 12.5t12.5 5.5h334q8 0 13 -5.5t5 -12.5v-37z" />
    <glyph glyph-name="uniE675" unicode="&#xe675;" 
d="M512 -158q91 0 174 35.5t143 95t95.5 142.5t35.5 174t-35.5 174t-95.5 143t-143 95.5t-174 35.5t-174 -35.5t-143 -95.5t-95.5 -143t-35.5 -174t35.5 -174t95.5 -142.5t143 -95t174 -35.5zM512 582q26 0 45 -18.5t19 -45t-19 -45.5t-45 -19t-45 19t-19 45.5t19 45
t45 18.5zM448 289q0 27 19 45.5t45 18.5t45 -18.5t19 -45.5v-223q0 -27 -19 -45.5t-45 -18.5t-45 18.5t-19 45.5v223z" />
    <glyph glyph-name="uniE676" unicode="&#xe676;" 
d="M861 850h-698q-49 0 -83 -34t-34 -83v-698q0 -49 34 -83t83 -34h698q49 0 83 34t34 83v698q0 49 -34 83t-83 34zM279 93h-116v116h116v-116zM279 268h-116v116h116v-116zM279 442h-116v117h116v-117zM279 617h-116v116h116v-116zM454 268h-117v116h117v-116zM454 442
h-117v117h117v-117zM454 617h-117v116h117v-116zM628 442h-116v117h116v-117zM628 617h-116v116h116v-116zM803 617h-116v116h116v-116z" />
    <glyph glyph-name="uniE677" unicode="&#xe677;" 
d="M942 243q-9 0 -235 -99l30 249q1 9 -5 17t-15 9q-19 2 -38 2q-116 0 -203 -77t-101 -193q-10 -82 22 -157.5t97.5 -124.5t147.5 -59q19 -3 38 -3q116 0 203 77.5t101 192.5q10 78 -20 151q-6 15 -22 15zM937 83q-12 -98 -85.5 -163t-171.5 -65q-16 0 -32 2
q-107 13 -173 97.5t-53 191.5q12 97 85.5 162.5t171.5 65.5h8l-32 -266q-2 -14 9 -22t24 -2q174 76 240 104q16 -51 9 -105zM1015 341q-27 63 -82 105t-123 50q-6 1 -10.5 -2.5t-5.5 -9.5l-30 -241q-1 -9 6 -13q3 -3 8 -3q3 0 6 1l223 94q6 3 8 8.5t0 10.5zM318 141h-284
q-10 0 -17 -7t-7 -18v-163q0 -10 7 -17.5t17 -7.5h339q-56 87 -56 191q0 11 1 22zM10 431v-164q0 -10 7 -17t17 -7h305q28 74 84.5 130t131.5 83h-521q-10 0 -17 -7.5t-7 -17.5zM824 770h-790q-10 0 -17 -7t-7 -18v-163q0 -11 7 -18t17 -7h790q10 0 17.5 7t7.5 18v163
q0 11 -7.5 18t-17.5 7zM824 770z" />
    <glyph glyph-name="uniE678" unicode="&#xe678;" 
d="M512 793q-103 0 -196.5 -40t-161 -108t-107.5 -161.5t-40 -196t40 -196t107.5 -161.5t161 -108t196.5 -40t196.5 40t161 108t107.5 161.5t40 196t-40 196t-107.5 161.5t-161 108t-196.5 40v0zM357 263q22 -34 57 -50l1 -82q-34 9 -62 29q-30 20 -50 47q-21 27 -33 60.5
t-12 70.5q0 44 17 84q17 39 46.5 68.5t68.5 46.5t84 17t84 -17t68 -46q30 -30 46.5 -69.5t16.5 -83.5q0 -28 -6 -51l-71 46v5q0 29 -10.5 54t-29.5 44t-44 30t-54 11t-54 -11q-26 -11 -44 -30q-19 -19 -30 -44t-11 -54q0 -41 22 -75v0zM726 160q-21 -1 -46 -5
q-25 -3 -51 -10l68 -113q9 -17 3 -35q-5 -19 -23 -28q-17 -9 -36 -3t-27 22l-57 128q-24 -15 -42 -29.5t-32 -28.5q-15 -15 -27 -31l-2 378l316 -244q-21 1 -44 -1v0zM726 160z" />
    <glyph glyph-name="uniE679" unicode="&#xe679;" 
d="M150 269h516v-103h-516v103zM150 110h412v-104h-412v104zM936 130v-155q0 -16 -11.5 -27.5t-27.5 -11.5h-771q-16 0 -27.5 11.5t-11.5 27.5v155h-77v-155q0 -48 34 -82.5t82 -34.5h771q48 0 82 34.5t34 82.5v155h-77zM506 326h-56l-39 107h-162l-38 -107h-55l148 391h54z
M395 477l-59 162q-3 8 -6 28h-1q-3 -18 -6 -28l-58 -162h130zM562 326v391h111q88 0 146.5 -52t58.5 -139q0 -91 -58.5 -145.5t-150.5 -54.5h-107zM612 672v-302h56q74 0 115.5 41t41.5 114t-42.5 110t-111.5 37h-59zM612 672z" />
    <glyph glyph-name="uniE67A" unicode="&#xe67a;" 
d="M510 280q93 0 159 66t66 159t-66 159t-158.5 66t-158.5 -66t-66 -159t66 -159t158 -66zM334 507q5 1 14 3t31.5 12.5t39 26t29.5 46t11 70.5q2 -7 5.5 -17t21.5 -36.5t42.5 -47t72 -38t105.5 -18.5q0 -1 0.5 -1.5t0.5 -1.5q0 -81 -57.5 -138.5t-139.5 -57.5
q-80 0 -137.5 57t-58.5 137q13 3 20 4zM702 126h-378q-31 -38 -64.5 -109t-50.5 -119.5t-17 -51.5h636q-14 69 -45.5 139t-56.5 106zM328 708q-35 14 -73 14q-82 0 -140.5 -58.5t-58.5 -141t58.5 -141.5t140.5 -59q25 0 51 7q-68 77 -68 178q0 59 24 111t66 90zM318 155h166
q-20 47 -49 92h-1q-43 13 -81 39h-242q-25 -27 -51 -78t-39.5 -86t-13.5 -37h260q24 40 46 65zM780 507q0 -101 -67 -178q26 -7 53 -7q82 0 140.5 59t58.5 141.5t-58.5 141t-140.5 58.5q-37 0 -74 -15q41 -38 64.5 -90t23.5 -110zM545 155h165l5 -6q21 -26 45 -64h256
q-11 50 -36 100t-44 76l-19 25h-252q-33 -23 -71 -36q-24 -38 -49 -95zM545 155z" />
    <glyph glyph-name="uniE67B" unicode="&#xe67b;" 
d="M898 -167h-196q-46 0 -79 30.5t-33 74.5v465q0 43 33 74t79 31h196q46 0 79 -31t33 -74v-465q0 -44 -33 -74.5t-79 -30.5zM956 351h-312v-361h312v361zM795 661q0 17 -12 29t-29 12h-665q-17 0 -29 -12t-12 -29v-460q0 -17 12 -29t29 -12h466v-82l-62 -1h-16h-9
q-24 0 -24 -18v-66q0 -10 6 -17t15 -8h90v-58h-316q-12 0 -20.5 8.5t-8.5 20.5t8.5 20.5t20.5 8.5h137q9 2 14.5 9t5.5 16v66q0 18 -25 18h-8q-11 0 -17 -1l-278 2q-22 0 -38 16t-16 39v555q0 23 16 39t38 16h707q22 0 38.5 -16t16.5 -39v-146h-35v119zM795 661z" />
    <glyph glyph-name="uniE67C" unicode="&#xe67c;" 
d="M989 -70l-251 250q49 76 60 164.5t-18 175t-95 152.5q-75 75 -177 102t-203.5 0t-176.5 -102q-57 -57 -86.5 -131t-29.5 -148.5t29.5 -148t86.5 -130.5q65 -65 151.5 -94.5t175.5 -18.5t164 60l251 -251q22 -21 53 -21t53 21l13 14q22 22 22 53t-22 53zM214 200
q-80 80 -80 193t79.5 192.5t193 79.5t193 -79.5t79.5 -192.5t-79.5 -193t-193 -80t-192.5 80zM214 200z" />
    <glyph glyph-name="uniE67D" unicode="&#xe67d;" 
d="M815 558l-272 -241q-71 51 -100.5 74t-108.5 87l-236 -197q-10 -9 -22 -17.5t-19.5 -14t-22 -14.5t-21.5 -14v-112q38 9 48.5 14.5t36.5 29.5q13 13 23 21.5t15.5 12.5t17.5 13.5t23 17.5q21 17 73 63.5t84 68.5q38 -20 112.5 -83t96.5 -78l369 305l92 -100q1 54 4 135
q2 31 2.5 45t-0.5 35t-1 28.5t-6 20.5t-8.5 15.5t-15.5 8.5t-20 6t-28.5 1.5t-35 1t-45.5 -1.5q-78 -2 -131 -2q16 -24 29 -41.5t20 -26.5t22 -28t25 -33v0zM751 302v-418h161v530q-11 -6 -21.5 -11t-14 -7t-10 -6.5t-13 -10t-18.5 -17.5q-10 -11 -20.5 -23.5t-15 -16.5
t-16 -9.5t-32.5 -10.5v0zM254 205l2 -321h7h151v337q-16 11 -31 22t-21.5 15.5t-13.5 9.5t-10 3.5t-7 -3t-9.5 -8t-13.5 -13.5t-22.5 -18.5t-31.5 -23.5zM511 -116h160q0 43 3 124q5 144 -6 172q-13 31 -49 -1q-92 -82 -99 -56l-1 -2q-3 -8 -6 -17zM13 12v-128h161v241
q-19 -5 -29.5 -9.5t-15 -8t-14.5 -13t-22 -17.5q-14 -10 -38 -31t-42 -34v0zM13 12z" />
    <glyph glyph-name="uniE67E" unicode="&#xe67e;" 
d="M27 -101v970h751l219 -218v-752h-970zM876 566h-182v182h-546v-728h728v546zM330 384h-61v61h61v-61zM330 263h-61v60h61v-60zM330 141h-61v61h61v-61zM755 384h-364v61h364v-61zM755 263h-364v60h364v-60zM755 141h-364v61h364v-61z" />
    <glyph glyph-name="uniE67F" unicode="&#xe67f;" 
d="M512 871q-99 0 -189 -38.5t-155.5 -104t-104 -155.5t-38.5 -189t38.5 -189t104 -155.5t155.5 -104t189 -38.5t189 38.5t155.5 104t104 155.5t38.5 189t-38.5 189t-104 155.5t-155.5 104t-189 38.5zM507 80q-19 0 -32.5 13t-13.5 31.5t13.5 32t32.5 13.5t32 -13.5t13 -32
t-13 -31.5t-32 -13zM552 279v-13v-7q0 -15 -12.5 -27.5t-27.5 -12.5h-5h-5q-16 0 -28.5 12t-12.5 28q-1 44 14.5 78.5t38 55.5t45 38.5t38.5 36.5t16 41q0 56 -26 77.5t-75 21.5q-44 0 -67.5 -27t-23.5 -72q0 -29 -23 -40.5t-45.5 0.5t-22.5 40q0 45 13.5 79t33 52.5
t46.5 29.5t47 14.5t42 3.5q20 1 42 -3t47.5 -15.5t45.5 -30t33.5 -49.5t13.5 -71q0 -39 -15 -70.5t-36 -51.5t-42 -37.5t-35 -37.5t-14 -43z" />
    <glyph glyph-name="uniE680" unicode="&#xe680;" 
d="M939 862q-2 -5 -10 -15q-98 -123 -134 -168q-8 -10 -3 -23q14 -42 8 -65t-36 -47q-52 -42 -152 -76q-123 -41 -231 -40l12 5q52 18 76.5 51.5t26.5 88.5q1 52 32.5 92.5t81.5 54.5q48 13 104 -2q12 -3 21 3q29 24 181 145q8 7 10 7q7 2 12 0q1 -1 1.5 -5t-0.5 -6z
M720 476q4 2 35 20l-7 -10q-153 -176 -383 -218q-14 -2 -21 2q-36 20 -82.5 39t-77 29t-88.5 27q-1 0 -12 4q202 7 217 8q233 17 385 83q15 7 34 16zM597 213q-183 -92 -366 19q343 2 559 264q-22 -197 -193 -283zM794 391q-31 -163 -100.5 -287t-198.5 -210
q17 49 22.5 88.5t-3 84.5t-34.5 84q223 37 314 240z" />
    <glyph glyph-name="uniE681" unicode="&#xe681;" 
d="M917 116l-405 439l-405 -439q-12 -13 -31 -14t-33 11.5t-15 31t12 32.5l438 474v0l3 3q14 13 33 12t32 -15l438 -474q13 -14 12 -32.5t-15 -31t-33 -11.5t-31 14z" />
    <glyph glyph-name="uniE682" unicode="&#xe682;" 
d="M917 651q12 14 31 15t33 -11.5t15 -31t-12 -32.5l-438 -475q-13 -13 -32 -14t-33 11l-3 3v1l-438 474q-13 14 -12 32.5t15 31t33 11.5t31 -15l405 -438z" />
    <glyph glyph-name="uniE683" unicode="&#xe683;" 
d="M923 315h-342v-342q0 -28 -20.5 -48.5t-48.5 -20.5t-48.5 20.5t-20.5 48.5v342h-342q-29 0 -49 20.5t-20 48.5t20 48.5t49 20.5h342v342q0 29 20.5 49t48.5 20t48.5 -20t20.5 -49v-342h342q29 0 49 -20.5t20 -48.5t-20 -48.5t-49 -20.5z" />
    <glyph glyph-name="uniE684" unicode="&#xe684;" 
d="M694 580q17 -2 50.5 -1.5t45.5 -1.5q34 -6 50.5 -33t12.5 -69h-54q-1 -54 -1 -298q0 -16 1 -48.5t0.5 -56.5t-2.5 -44q-3 -31 -23.5 -50.5t-50.5 -25.5q-17 -2 -38.5 -2.5t-50.5 0.5t-41 1q-29 0 -82.5 -0.5t-97 -0.5t-81.5 1q-63 1 -92 39q-3 4 -5 8.5t-4 10.5t-3 10
t-2 12l-2 12v13v14v14v15v376h-52q-6 38 8.5 65t43.5 36q12 4 30.5 4.5t35.5 -0.5t38 0q-3 49 6 74.5t42 29.5q9 1 21.5 1t29 -0.5t25.5 -0.5h152h16h19q5 0 14 -1t14.5 -3t10.5 -6q6 -5 9.5 -12.5t4.5 -18.5t1.5 -19.5t0 -22.5t0.5 -21zM380 629v-50h262v52h-261
q-1 0 -1 -2zM329 469v-318q0 -6 -0.5 -19.5t-0.5 -24t0.5 -22.5t3 -20t7.5 -11q5 -4 15 -4t16 4q5 3 7.5 11t3.5 20t1 22t-0.5 23.5t-0.5 19.5v322h-51q-1 -1 -1 -3zM485 469v-308q0 -3 -1.5 -30t-0.5 -44.5t6 -24.5q5 -8 18 -11t21 3q4 4 6.5 12.5t3 20.5t0.5 23t-1 24
t-1 18v320h-51q-1 -1 0 -3zM642 469v-323q0 -5 -0.5 -20.5t-0.5 -24t1 -20t5 -18.5t10 -9q7 -3 16.5 -2t13.5 4q5 4 7 17.5t2 26t-1 31t-1 23.5v318h-51q-1 -1 -1 -3z" />
    <glyph glyph-name="uniE685" unicode="&#xe685;" 
d="M867 -149h-710l-5 2q-62 11 -83 70q0 1 -5 21v710l2 5q12 67 79 85l12 3h610q31 -7 64 -38q45 -44 88 -88q34 -35 41 -66v-611l-2 -5q-12 -67 -79 -85q-2 0 -12 -3zM512 -114h305q40 0 40 39v335q0 39 -39 39h-612q-39 0 -39 -38v-336q0 -8 1 -12q7 -27 39 -27h305z
M494 402h218q41 0 41 41v229q0 41 -41 41h-435q-41 0 -41 -41v-229q0 -41 41 -41h217zM582 678h101v-240h-101v240z" />
    <glyph glyph-name="uniE686" unicode="&#xe686;" 
d="M353 148v-194h-193v194h193zM363 211h-214q-22 0 -37.5 -15t-15.5 -38v-214q0 -22 15.5 -37.5t37.5 -15.5h214q22 0 38 15.5t16 37.5v214q0 23 -16 38t-38 15zM781 148v-194h-194v194h194zM791 211h-214q-22 0 -37.5 -15t-15.5 -38v-214q0 -22 15.5 -37.5t37.5 -15.5h214
q22 0 37.5 15.5t15.5 37.5v214q0 23 -15.5 38t-37.5 15zM353 575v-193h-193v193h193zM363 639h-214q-22 0 -37.5 -15.5t-15.5 -37.5v-214q0 -22 15.5 -38t37.5 -16h214q22 0 38 16t16 38v214q0 22 -16 37.5t-38 15.5zM711 654l149 -149l-149 -149l-149 149zM711 720
q-23 0 -40 -16l-159 -159q-16 -17 -16 -40.5t16 -39.5l159 -159q17 -17 40 -17t40 17l159 159q17 16 17 39.5t-17 40.5l-159 159q-17 16 -40 16zM600 116zM917 587z" />
    <glyph glyph-name="uniE687" unicode="&#xe687;" 
d="M512 -132q-117 0 -217 57.5t-157.5 157.5t-57.5 217t57.5 217t157.5 157.5t217 57.5t217 -57.5t157.5 -157.5t57.5 -217t-57.5 -217t-157.5 -157.5t-217 -57.5zM874 163h-108q-26 -81 -81 -145.5t-131 -101.5q110 12 195.5 79t124.5 168zM740 289q0 50 -13 102h-192v-182
h196q9 40 9 80zM489 163h-179q25 -67 72.5 -124t107.5 -90zM489 209v182h-194q-11 -46 -11 -91q0 -46 11 -91h194zM489 437v220q-63 -36 -110 -92.5t-71 -127.5h181zM713 437q-26 70 -72 127t-106 92v-219h178zM535 163v-219q65 35 113 92t71 127h-184zM489 -86v8v-8
q-77 33 -137 100t-90 149h-112q40 -105 132 -173.5t207 -75.5zM137 392q-12 -46 -12 -92q0 -45 11 -91h113q-10 46 -10 91q0 44 10 91h-101q-9 0 -11 1zM150 437h111q25 76 81 142t126 106q-106 -15 -193.5 -83t-124.5 -165zM552 684q71 -36 125 -101.5t82 -145.5h115
q-39 101 -125.5 168.5t-196.5 78.5zM773 391q12 -51 12 -102q0 -39 -8 -80h111q11 46 11 91t-11 91h-115z" />
    <glyph glyph-name="uniE688" unicode="&#xe688;" 
d="M512 -164q-99 0 -189.5 39t-156 104t-104 155.5t-38.5 189.5t38.5 189.5t104 155.5t156 104t189.5 39t189.5 -39t155.5 -104t103.5 -155.5t38.5 -189.5t-38.5 -189.5t-103.5 -155.5t-155.5 -104t-189.5 -39zM509 721q-107 0 -196.5 -53.5t-140.5 -144.5t-51 -198.5
t51 -197.5t140 -141.5t197 -51.5t199 51.5t144 141.5t53 197.5t-53 199t-144 144.5t-199 53zM707 276h-146v-147q0 -20 -14.5 -34t-34.5 -14t-34.5 14t-14.5 34v147h-146q-20 0 -34.5 14t-14.5 34q0 21 14.5 35t34.5 14h146v146q0 21 14.5 35t34.5 14t34.5 -14t14.5 -35
v-146h146q20 0 34.5 -14t14.5 -35q0 -20 -14.5 -34t-34.5 -14z" />
    <glyph glyph-name="uniE689" unicode="&#xe689;" 
d="M809 -76h-594q-68 0 -115.5 47.5t-47.5 115.5v54q0 -68 47.5 -115.5t115.5 -47.5h594q68 0 115.5 47.5t47.5 115.5v-54q0 -68 -47.5 -115.5t-115.5 -47.5zM809 32h-594q-68 0 -115.5 47.5t-47.5 115.5v486q0 68 47.5 115.5t115.5 47.5h594q68 0 115.5 -47.5t47.5 -115.5
v-486q0 -68 -47.5 -115.5t-115.5 -47.5zM466 631h-306v-45h127v-342h51v342h128v45zM782 631l-105 -281q-12 -32 -21 -63q-8 29 -20 63l-101 281h-55l150 -387h52l152 387h-52z" />
    <glyph glyph-name="uniE68A" unicode="&#xe68a;" 
d="M764 -148h-504q-35 0 -59.5 24.5t-24.5 59.5v728q0 35 24.5 59.5t59.5 24.5h504q35 0 59.5 -24.5t24.5 -59.5v-728q0 -35 -24.5 -59.5t-59.5 -24.5zM512 -120q12 0 20 8t8 20t-8 20t-20 8t-20 -8t-8 -20t8 -20t20 -8zM526 692h-28q-6 0 -10 -4t-4 -10t4 -10t10 -4h28
q6 0 10 4t4 10t-4 10t-10 4zM792 636h-560v-672h560v672z" />
    <glyph glyph-name="uniE68B" unicode="&#xe68b;" 
d="M332 896q-36 0 -62.5 -26t-26.5 -63v-846q0 -37 26.5 -63t62.5 -26h381q37 0 63 26t26 63v846q0 37 -26 63t-63 26h-381zM748 51h-451v666h451v-666zM477 -35q0 19 13.5 32.5t32.5 13.5t32.5 -13.5t13.5 -32.5t-13.5 -32.5t-32.5 -13.5t-32.5 13.5t-13.5 32.5zM567 806
q4 0 7 -3t3 -7.5t-3 -7.5t-7 -3h-88q-5 0 -8 3t-3 7.5t3 7.5t8 3h88z" />
    <glyph glyph-name="uniE68C" unicode="&#xe68c;" 
d="M870 672h-716q-37 0 -63.5 -27t-26.5 -64v-458q0 -37 26.5 -64t63.5 -27h716q38 0 64 27t26 64v458q0 37 -26.5 64t-63.5 27zM586 -32h-148q-1 -3 -3.5 -9t-12.5 -20.5t-22 -26t-33.5 -20.5t-46.5 -9v-43h384v43q-25 0 -46 8.5t-34 21t-22 25t-13 21.5z" />
    <glyph glyph-name="uniE68D" unicode="&#xe68d;" 
d="M907 812h-791q-47 0 -81.5 -34.5t-34.5 -81.5v-791q0 -48 34.5 -82.5t81.5 -34.5h791q48 0 82.5 34.5t34.5 82.5v790q0 48 -34.5 82.5t-82.5 34.5zM653 287q0 -37 -5 -71t-18.5 -71.5t-35 -69.5t-56.5 -61t-80 -49t-108.5 -32t-139.5 -12q43 13 77.5 37.5t54.5 53.5
t35.5 63t20.5 66t9.5 61t2.5 49t-1 31v5h-161l283 279l282 -279h-160zM735 401l-203 200l-204 -200h-79v0l283 278l282 -278h-79zM486 347q-9 15 -11 23h-41q4 -5 16 -24l34 -53h-14q-14 0 -25 2v-27q11 1 25 1h28l8 -12v-7h-36q-14 0 -25 2v-28q11 2 25 2h36v-16
q0 -16 -2 -31h36q-2 13 -2 31v16h35q14 0 25 -2v28q-11 -2 -25 -2h-35v7l8 13h28q14 0 25 -2v27q-11 -2 -25 -2h-14l33 53q8 12 17 25h-41q-3 -9 -12 -24l-35 -61z" />
    <glyph glyph-name="uniE68E" unicode="&#xe68e;" 
d="M219 803.5q-114 -79.5 -171.5 -203.5t-46 -259.5t91 -249.5t203.5 -171.5t259.5 -46t249.5 91t171.5 203.5t46 259.5t-91 249.5t-203.5 171.5t-259.5 46t-249.5 -91zM781.5 -1q-104.5 -73 -229.5 -83.5t-238.5 42t-186.5 157t-83.5 229.5t42 238.5t157 186.5t229.5 83.5
t238.5 -42t186.5 -157t83.5 -229.5t-42 -238.5t-157 -186.5zM260 744.5q-98 -68.5 -147 -175t-39.5 -223t78 -214.5t175 -147t223 -39.5t214.5 78t147 175t39.5 223t-78 214.5t-175 147t-223 39.5t-214.5 -78zM752 41q-93 -65 -204.5 -74.5t-212.5 37.5t-166 140
t-74.5 204.5t37.5 212.5t140 166t204.5 74.5t212.5 -37.5t166 -140t74.5 -204.5t-37.5 -212.5t-140 -166zM291 390q1 52 25.5 98.5t68.5 77t97 37.5t100 -9l22 15q-55 23 -117 16.5t-114 -42.5t-79 -91.5t-25 -116.5zM733 378q-1 -52 -25.5 -98.5t-68.5 -77t-97 -37.5
t-100 9l-22 -15q55 -23 117 -16.5t114 42.5t79 91.5t25 116.5zM287 706l34 -26l34 24l-14 -39l34 -26l-42 1l-14 -40l-12 41h-42l34 25zM172 581l41 -9l21 36l5 -42l41 -8l-38 -18l4 -41l-28 31l-39 -17l21 36zM444 771l20 -37l41 7l-29 -31l20 -37l-38 19l-29 -30l6 41
l-38 19l41 7zM614 763l2 -42l41 -11l-40 -15l3 -42l-27 33l-39 -15l23 35l-27 33l41 -11zM121 418l41 10l4 42l21 -36l41 9l-27 -31l21 -37l-38 17l-28 -32l4 42zM737 62l-34 26l-34 -24l14 39l-34 26l42 -1l14 40l12 -41h42l-34 -25zM852 187l-41 9l-21 -36l-5 42l-41 8
l38 18l-4 41l28 -31l39 17l-21 -36zM580 -3l-20 37l-41 -7l29 31l-20 37l38 -19l29 30l-6 -41l38 -19l-41 -7zM410 5l-2 42l-41 11l40 15l-3 42l27 -33l39 15l-23 -35l27 -33l-41 11zM903 350l-41 -10l-4 -42l-21 36l-41 -9l27 31l-21 37l38 -17l28 32l-4 -42zM394 301
l-111 -77l35 -50q7 -10 16 -3l90 63q5 3 7 9q1 7 -17 36l20 7q20 -36 19 -47q-2 -10 -12 -18l-100 -70q-22 -15 -38 8l-66 93l17 12l18 -24l93 65l-30 43l-119 -83l-11 16l136 95zM608 334q-6 -4 -34 -23q-18 -13 -32 -18q-13 -4 -28 -1q-7 2 -10 -1q-6 -4 -3 -38l-20 3
q-2 31 5 45l-36 50l-24 -17l-12 16l41 29l48 -68q2 0 5 -1q11 -2 21 -1q11 2 27 13l39 26l24 18q14 10 19 15l8 -20zM388 419q28 -1 50 -6l-4 -21q-21 6 -50 8zM561 337l-15 14q12 7 23 14q7 5 3 11l-51 72l-64 -44l-12 16l64 45l-19 27l17 12l19 -27l24 17l12 -17l-24 -17
l54 -76q12 -17 -7 -30zM488 406q29 -9 48 -17l-7 -21q-19 10 -48 20zM678 429q4 -25 1 -49h-20q4 22 1 46zM564 544l16 11l13 -18l31 21l-13 19l17 11l12 -18l10 7l11 -16l-9 -7l50 -72l10 8l11 -16l-86 -60l-11 15l12 9l-50 71l-10 -6l-11 15l9 7zM635 543l-31 -22l10 -14
l31 21zM634 478l31 22l-10 14l-31 -22zM654 449l31 22l-9 14l-31 -22zM699 454q21 -7 35 -13q-2 34 -26 69l-60 86l64 44l98 -140q13 -18 -5 -30l-19 -13l-16 13l18 12q6 4 1 12l-23 32l-30 -21q21 -38 20 -74l-21 3l-5 -15q-15 9 -38 17zM725 585l-19 27l-29 -20l19 -28z
M707 549l19 -28l29 21l-19 27z" />
  </font>
</defs>
</svg>
